<svg xmlns="http://www.w3.org/2000/svg" width="1920.99" height="1080" viewBox="0 0 1920.99 1080">
  <g id="Group_127" data-name="Group 127" transform="translate(0.49)">
    <g id="Rectangle_1" data-name="Rectangle 1" fill="#f4fffd" stroke="#707070" stroke-width="1">
      <rect width="1920" height="1080" stroke="none"/>
      <rect x="0.5" y="0.5" width="1919" height="1079" fill="none"/>
    </g>
    <path id="Union_3" data-name="Union 3" d="M428.078,1022.435a65.535,65.535,0,0,1-19.589-10.818c-23.031-18.365-26.746-49.707-30.024-77.36-.764-6.446-1.486-12.534-2.426-18.317-1.387-8.561-2.982-17.115-4.67-26.171l-.005-.026,0-.009c-2.992-16.049-6.087-32.643-7.895-49.085-.977-8.876-1.5-16.91-1.594-24.562a168.568,168.568,0,0,1,1.316-24.125,63.682,63.682,0,0,1,2.3-9.1,81.778,81.778,0,0,0,2.469-9.515c.556-3.34.359-5.7-.6-7.219-.914-1.441-2.495-2.141-4.83-2.141a17.741,17.741,0,0,0-3.82.485c-2.748.613-5.77,2.594-8.983,5.885a70.894,70.894,0,0,0-8.445,10.962,162.9,162.9,0,0,0-11.173,20.87c-2.577,5.827-4.483,12.462-6.5,19.489-2.879,10.021-5.856,20.382-11.085,29.342a47.833,47.833,0,0,1-9.78,12.1,42.189,42.189,0,0,1-6.638,4.766,46.084,46.084,0,0,1-8.064,3.669,55.581,55.581,0,0,1-17.983,3.366,31.4,31.4,0,0,1-24.891-11.292,46.544,46.544,0,0,1-7.133-11.655A71.846,71.846,0,0,1,233.76,838.5c-3.567-16.4-7.372-30.878-11.632-44.269a338.292,338.292,0,0,0-16.859-43.042,328.224,328.224,0,0,0-53.528-80.228,314.883,314.883,0,0,0-36.506-34.207A321.671,321.671,0,0,0,71.94,607.7c-11.156-6.243-22.978-11.84-34.411-17.253l-.014-.007c-11.122-5.265-22.623-10.71-33.386-16.7-1.258-.685-2.567-1.424-4.119-2.326V89H.5V.5h1919V89h.5V513.161a250.408,250.408,0,0,1-12.582,31.5,130.694,130.694,0,0,1-19.318,29.078,121.621,121.621,0,0,1-11.625,11.441,132.883,132.883,0,0,1-14.154,10.585c-8.3,5.4-17.746,9.168-26.879,12.811-7.72,3.08-15.7,6.263-22.882,10.4a61.278,61.278,0,0,0-17.234,15.2,168.641,168.641,0,0,0-12.307,18.4c-.821,1.352-1.749,2.883-2.639,4.325-4.307,6.969-8.454,15.568-12.844,24.673l-.006.013c-3.119,6.467-6.345,13.154-9.867,19.768a182.317,182.317,0,0,1-11.578,19.174,94.456,94.456,0,0,1-14.2,16.325,65.866,65.866,0,0,1-8.369,6.393,56.275,56.275,0,0,1-9.366,4.838,40.28,40.28,0,0,1-14.764,3.231,24.593,24.593,0,0,1-6.982-.975,23.071,23.071,0,0,1-5.956-2.747,32.925,32.925,0,0,1-9.4-9.718c-5.331-7.995-9.045-18.536-12.637-28.732-4.7-13.342-9.14-25.942-16.686-31.64A19.2,19.2,0,0,0,1636,673.36c-6.516,0-13.665,3.423-21.249,10.174-6.323,5.63-12.928,13.537-19.631,23.5a256.732,256.732,0,0,0-15.332,26.3,176.593,176.593,0,0,0-8.353,18.56c-3.852,10.872-7.4,24.969-11.157,39.893l0,.013c-3.729,14.812-7.955,31.6-13.161,47.929-5.966,18.71-12.344,34.079-19.5,46.985a143.513,143.513,0,0,1-13.458,20.264,102,102,0,0,1-16.641,16.579,83.588,83.588,0,0,1-20.356,11.747,87.006,87.006,0,0,1-24.6,5.765c-2.454.218-4.923.328-7.337.329a76.98,76.98,0,0,1-14.844-1.43,75.782,75.782,0,0,1-13.518-4.009,87.482,87.482,0,0,1-23.225-14.059c-11.9-9.875-22.794-23.469-32.386-40.406a457.892,457.892,0,0,1-24.279-50.451c-.572-1.377-1.469-4.685-2.6-8.871l0-.006a259.487,259.487,0,0,0-7.86-25.371,52.075,52.075,0,0,0-5.146-10.359c-1.941-2.8-3.859-4.217-5.7-4.217a4.556,4.556,0,0,0-2.922,1.207,48.91,48.91,0,0,0-9.156,11.4c-2.56,4.232-4.8,8.9-6.975,13.412-4.329,9-8.806,18.305-16.259,25.534-6.074,5.89-10.781,9.679-15.263,12.284a35.481,35.481,0,0,1-7.88,3.454,29.9,29.9,0,0,1-8.549,1.225c-5.415,0-11.2-1.376-17.7-4.207a67.949,67.949,0,0,1-14.745-8.763,70.225,70.225,0,0,1-11.371-11.276c-5.887-7.316-10.778-16.145-14.955-26.992-.294-.765-.8-3.065-1.435-5.977-1.633-7.46-4.1-18.734-6.285-19.3a9.7,9.7,0,0,0-2.395-.332,5.8,5.8,0,0,0-4.223,1.71,19.231,19.231,0,0,0-2.853,3.911,21.98,21.98,0,0,1-3.469,4.668,139.888,139.888,0,0,0-11.581,12.938c-8.9,10.791-18.1,21.949-33.759,26.19a37.066,37.066,0,0,1-9.67,1.346c-9.32,0-17.794-3.962-25.189-11.776-7-7.391-11.491-16.618-14.031-23.055-.88-2.23-1.695-7.116-2.726-13.3-1.353-8.119-3.037-18.223-5.6-26.282a37.262,37.262,0,0,0-4.567-10.06c-1.9-2.666-4.015-4.018-6.3-4.018-.149,0-.293.005-.444.017-3.265.238-6.351,2.273-9.173,6.05a52.483,52.483,0,0,0-6.7,13.432c-3.724,10.357-6.082,22.619-7.492,29.946l0,.01c-.451,2.344-.806,4.195-1.1,5.439-3.252,13.9-5.822,28.116-8.544,43.164l0,.012c-6.8,37.623-13.839,76.526-32.115,109.874-7.021,12.816-21,26.9-37.4,37.678a126.844,126.844,0,0,1-26.784,13.546,84.031,84.031,0,0,1-28.182,5.3,58.448,58.448,0,0,1-15.865-2.112,69.954,69.954,0,0,1-15.324-6.327,68.118,68.118,0,0,1-12.548-9.121,78.394,78.394,0,0,1-10.13-11.359,101.382,101.382,0,0,1-8.076-13.047c-9.557-18.276-14.547-39.387-18.95-58.012l0-.017c-1.461-6.176-2.839-12.01-4.289-17.313-1.115-4.071-2.262-8.208-3.37-12.209l-.06-.218c-3.23-11.66-6.57-23.717-9.589-35.676-4.142-16.412-6.55-29.724-7.58-41.894-.147-1.719-.279-3.482-.407-5.187l0-.029c-.833-11.092-1.695-22.562-7.031-32.423a4.994,4.994,0,0,0-4.378-2.933,6.691,6.691,0,0,0-4.142,1.7,141.381,141.381,0,0,0-14.72,14.623c-5.452,5.98-11.088,12.161-18.01,17.19-12.525,9.112-28.342,17.287-47.011,24.295a119.332,119.332,0,0,1-16.008,4.886,59.878,59.878,0,0,1-12.729,1.543c-10.318,0-17.777-3.661-23.474-11.525-5.143-7.1-8.4-17.036-11.857-27.556-.908-2.767-1.847-5.627-2.842-8.508-2.15-6.219-4.543-10.758-7.316-13.875a16.608,16.608,0,0,0-5.106-3.976,14.482,14.482,0,0,0-6.386-1.422,22.566,22.566,0,0,0-7.235,1.329,45.5,45.5,0,0,0-8.716,4.216,33.58,33.58,0,0,0-7.753,6.339,31.609,31.609,0,0,0-4.887,7.312c-2.517,5.138-3.743,10.631-5.04,16.447-.4,1.815-.823,3.687-1.281,5.532-11.289,45.568-22.063,86.372-32.94,124.745-1.228,4.334-2.391,8.789-3.623,13.5l0,.006c-3.6,13.8-7.331,28.062-13.239,41.612a109.011,109.011,0,0,1-10.677,19.34,79.255,79.255,0,0,1-15.229,16.37A89.941,89.941,0,0,1,475.5,1021a74.6,74.6,0,0,1-26.258,4.923A65.058,65.058,0,0,1,428.078,1022.435Zm245.958-4.816a21.838,21.838,0,0,1-6.907-5.427c-3.378-3.892-6.163-9.391-8.278-16.344a116.421,116.421,0,0,1-4.018-21c-1.586-14.586-1.31-29.588-1.144-38.55v-.02c.073-3.947.125-6.8.007-8.217l6.385-59.988c1.456-5.125,3.569-9.015,6.278-11.564a12.926,12.926,0,0,1,9.13-3.609,20.657,20.657,0,0,1,7.767,1.7,40.233,40.233,0,0,1,8.364,4.823A87.022,87.022,0,0,1,708.672,876.8a141.684,141.684,0,0,1,15.045,24.956,138.178,138.178,0,0,1,10.107,29.255,105.368,105.368,0,0,1,2.578,23.043,76.763,76.763,0,0,1-3.224,22.2c-4.712,15.322-14.458,27.482-28.966,36.144a59.483,59.483,0,0,1-11.6,5.477,31.1,31.1,0,0,1-9.692,1.715A20.144,20.144,0,0,1,674.036,1017.619Zm569.833-68.556a32.563,32.563,0,0,1-10.2-5.86,25.785,25.785,0,0,1-9.456-19.616,59.382,59.382,0,0,1,1.889-15.769,50.972,50.972,0,0,1,4.639-11.447c.6-1.1,1.269-2.385,2.042-3.874l.006-.013a127.6,127.6,0,0,1,9.41-16.054,34.4,34.4,0,0,1,5.945-6.512,11.883,11.883,0,0,1,6.509-2.908c.21-.014.424-.022.636-.022,10.67,0,22.024,17.919,26.3,24.664l.017.027c.565.891,1.012,1.6,1.3,2.018a37.253,37.253,0,0,1,5.471,12.655,80.8,80.8,0,0,1,1.961,14.495,24.335,24.335,0,0,1-1.86,10.862,28.416,28.416,0,0,1-6.3,9.263,34.049,34.049,0,0,1-9.79,6.744,38,38,0,0,1-12.325,3.3c-1.242.12-2.5.18-3.74.18A36.723,36.723,0,0,1,1243.869,949.064ZM75.927,744.573a24.942,24.942,0,0,1-4.224-7.848,32.356,32.356,0,0,1-1.6-9.962c-.029-3.047.031-5.832.182-8.514A87.679,87.679,0,0,1,71.6,707.176a64.432,64.432,0,0,1,4.886-15.6A40.891,40.891,0,0,1,85.6,678.811c4.573-4.214,9.814-6.6,14.758-6.709.131,0,.256,0,.372,0,5.779,0,11.511,3.128,16.141,8.81a47.081,47.081,0,0,1,5.59,8.921,102.294,102.294,0,0,1,4.292,10.218,58.909,58.909,0,0,1,3.877,15.472,30.581,30.581,0,0,1-3.047,16.758c-2.263,4.234-5.852,7.785-10.974,10.856-8.077,4.846-16.6,6.862-23.121,8.077l-.229.042a18.518,18.518,0,0,1-3.336.31A17.881,17.881,0,0,1,75.927,744.573Z" fill="#f79838" stroke="rgba(0,0,0,0)" stroke-miterlimit="10" stroke-width="1"/>
  </g>
</svg>
