<svg xmlns="http://www.w3.org/2000/svg" xmlns:xlink="http://www.w3.org/1999/xlink" width="1112.205" height="683.044" viewBox="0 0 1112.205 683.044">
  <defs>
    <style>
      .cls-1 {
        fill: url(#linear-gradient);
      }

      .cls-2 {
        fill: #f79838;
      }
    </style>
    <linearGradient id="linear-gradient" y1="0.5" x2="1" y2="0.5" gradientUnits="objectBoundingBox">
      <stop offset="0" stop-color="#f79838"/>
      <stop offset="1" stop-color="#f79838"/>
    </linearGradient>
  </defs>
  <g id="Group_126" data-name="Group 126" transform="translate(-403.897 -404.246)">
    <path id="Path_200" data-name="Path 200" class="cls-1" d="M2114.278,659.256c-10,17.937-28.6,28.807-45.717,41.308-8.889,6.475-17.09,13.628-23.385,22.1-6.983,9.319-9.348,19.315-14.131,29.281-.3.566-.559,1.126-.853,1.692-5.283,10.335-16.825,16.669-20.5,27.791-29.456,89.177-186.676,62.821-250.5,105.483-51.5,34.433-179.758,1.743-208.455-63.892-8.266-18.922,1.312-.985-9.972-19.2-11.606-18.755-37.481-14.194-58.572-9.94-90.253,18.189-75.562-40.07-101.83-71.266-12.89-15.29-21.221-34.58-20.268-53.643,1.112-22.048,17.285-28.185,31.286-44.011,28.4-32.1-45.588-45.505-58.737-70.311-19.249-36.211,18.991-56.906,55.2-58.881,19.908-1.1,40.8-5.43,49.13-22.836,8-16.724-1.477-32.888-4.854-49.36-7.807-38.1,38.634-68.847,72.874-85.344,41.123-19.826,92.446-35.171,140.135-28.049,18.038,2.7,31.287,4.364,50.342,13.517,15.22,7.294,21.938,21.482,40.211,14.754,41.252-15.148,28.856-47.223,67.785-61.805,40.7-15.234,84.057,16.613,108.325,41.222,12.955,13.092,24.074,26.246,45.358,28.241,21.156,1.945,36.964-.929,56.313,9.436,36.957,19.82,75.363,64.988,71.592,104.129-1.871,19.543-24.039,32.267-24.6,51.249-.689,22.3,31.581,26.412,48.765,35.954C2155.406,572.529,2133.592,624.535,2114.278,659.256Z" transform="matrix(0.998, 0.07, -0.07, 0.998, -746.88, 39.631)"/>
    <g id="Group_91" data-name="Group 91" transform="translate(320.311 199.253)">
      <path id="Path_326" data-name="Path 326" class="cls-2" d="M272.069,304.14c-.207,11.352-3.507,22.627-11.981,32.01-7.764,8.6-20.236,12.5-31.162,3.34a17.284,17.284,0,0,0-16.036-3.425c-7.293,1.863-13.941.593-19.071-5.3-5.268-6.051-6.295-13.085-3.482-20.468,2.565-6.725,2.658-13.077-.353-19.765-3.685-8.19-.418-17.521,7.837-22.789,10.715-6.843,22.046-7.273,33.313-1.6,5.24,2.638,10.362,4.1,16.279,3.73,7.585-.471,13.381,3.287,17.708,9.314C270.235,286.323,271.935,294.481,272.069,304.14Z" transform="translate(851.828 46.677)"/>
      <path id="Path_327" data-name="Path 327" class="cls-2" d="M83.588,345.556a36.534,36.534,0,0,1,36.2-36.852c19.948-.2,36.592,15.914,36.884,35.712a36.549,36.549,0,1,1-73.087,1.14Z" transform="translate(0 225.946)"/>
      <path id="Path_328" data-name="Path 328" class="cls-2" d="M237.864,246.962a21.343,21.343,0,0,1-.353,42.684,21.343,21.343,0,1,1,.353-42.684Z" transform="translate(936.851)"/>
      <path id="Path_329" data-name="Path 329" class="cls-2" d="M221.616,330.427a20.928,20.928,0,1,1-21.08,20.792A20.635,20.635,0,0,1,221.616,330.427Z" transform="translate(888.698 302.343)"/>
      <path id="Path_331" data-name="Path 331" class="cls-2" d="M201.57,328.2a15.319,15.319,0,1,1,30.63.7A15.587,15.587,0,0,1,217,343.71,15.375,15.375,0,0,1,201.57,328.2Z" transform="translate(891.859 239.121)"/>
      <path id="Path_332" data-name="Path 332" class="cls-2" d="M151.547,295.871a11.673,11.673,0,0,1-11.855-11.518,11.367,11.367,0,0,1,11.526-11.75,11.635,11.635,0,1,1,.329,23.268Z" transform="translate(258.378 -51.853)"/>
      <path id="Path_333" data-name="Path 333" class="cls-2" d="M234.279,324.884a9.374,9.374,0,1,1-9.505-9.063A9.328,9.328,0,0,1,234.279,324.884Z" transform="translate(934.58 247.717)"/>
      <path id="Path_334" data-name="Path 334" class="cls-2" d="M202.965,388.922a8.447,8.447,0,0,1-8.349-8.3,8.027,8.027,0,0,1,8.012-7.955,7.809,7.809,0,0,1,8.267,7.63A8.238,8.238,0,0,1,202.965,388.922Z" transform="translate(763.162 454.465)"/>
      <path id="Path_338" data-name="Path 338" class="cls-2" d="M202.965,388.922a8.447,8.447,0,0,1-8.349-8.3,8.027,8.027,0,0,1,8.012-7.955,7.809,7.809,0,0,1,8.267,7.63A8.238,8.238,0,0,1,202.965,388.922Z" transform="translate(702.162 -112.492)"/>
      <path id="Path_335" data-name="Path 335" class="cls-2" d="M102.409,371.42a8,8,0,0,1-15.987-.406,8,8,0,1,1,15.987.406Z" transform="translate(8.659 425.557)"/>
      <path id="Path_336" data-name="Path 336" class="cls-2" d="M116.5,281.275a7.5,7.5,0,0,1-15-.406,7.621,7.621,0,0,1,7.687-7.245A7.718,7.718,0,0,1,116.5,281.275Z" transform="translate(54.8 95.808)"/>
      <path id="Path_337" data-name="Path 337" class="cls-2" d="M135.469,375.22c3.316-.061,6.356,2.817,6.108,6.076-.26,3.511-2.293,5.593-5.861,5.8a5.873,5.873,0,0,1-6.1-6.051C129.884,377.533,131.889,375.524,135.469,375.22Z" transform="translate(314.992 462.262)"/>
    </g>
  </g>
</svg>
