<svg xmlns="http://www.w3.org/2000/svg" width="912.983" height="541.578" viewBox="0 0 912.983 541.578">
  <defs>
    <style>
      .cls-1 {
        fill: #f79838;
      }

      .cls-2 {
        fill: #011936;
      }

      .cls-3 {
        fill: #fae0b2;
      }

      .cls-4 {
        fill: #f7cc7f;
      }

      .cls-5 {
        fill: #ed254e;
      }

      .cls-6 {
        fill: #f79c8d;
      }

      .cls-7 {
        fill: #bc722e;
      }

      .cls-8 {
        fill: #d88132;
      }

      .cls-9 {
        fill: #f7a491;
      }

      .cls-10 {
        fill: #02274c;
      }

      .cls-11 {
        fill: #f47458;
      }

      .cls-12 {
        fill: #184655;
      }

      .cls-13 {
        fill: #f4fffd;
      }

      .cls-14 {
        fill: #00a7e1;
      }

      .cls-15 {
        fill: #042a44;
      }

      .cls-16 {
        fill: #fff;
      }

      .cls-17, .cls-19, .cls-20, .cls-34 {
        fill: #231b36;
      }

      .cls-18, .cls-20, .cls-33, .cls-34 {
        opacity: 0.5;
      }

      .cls-18, .cls-20 {
        mix-blend-mode: multiply;
      }

      .cls-18, .cls-19, .cls-20, .cls-33, .cls-34 {
        isolation: isolate;
      }

      .cls-19 {
        opacity: 0.39;
      }

      .cls-19, .cls-33, .cls-34 {
        mix-blend-mode: screen;
      }

      .cls-21 {
        fill: #632b52;
      }

      .cls-22 {
        fill: #ffeaff;
      }

      .cls-23 {
        fill: #955c7f;
      }

      .cls-24 {
        fill: #413857;
      }

      .cls-25, .cls-26, .cls-31, .cls-32 {
        fill: none;
        stroke: #0f0c1c;
        stroke-linecap: round;
        stroke-miterlimit: 10;
      }

      .cls-25 {
        stroke-width: 1.651px;
      }

      .cls-26 {
        stroke-width: 0.826px;
      }

      .cls-27 {
        fill: #99958d;
      }

      .cls-28 {
        fill: #c6beb0;
      }

      .cls-29 {
        fill: #514f4c;
      }

      .cls-30 {
        fill: #7f5474;
      }

      .cls-31 {
        stroke-width: 1.314px;
      }

      .cls-32 {
        stroke-width: 0.657px;
      }

      .cls-33 {
        fill: #e5e0d1;
      }
    </style>
  </defs>
  <g id="Group_123" data-name="Group 123" transform="translate(-74.642 -190.675)">
    <path id="Path_340" data-name="Path 340" class="cls-1" d="M917.908,641.617H810.982c11.444-10.517,18.741-26.444,18.741-44.272v-13.1c0-37.95,27.589-68.715,61.622-68.715h0c34.888,0,63.17-31.537,63.17-70.44h0c0-38.9-28.282-70.44-63.17-70.44H881c-34.033,0-61.622-30.765-61.622-68.715h0c0-31.668-23.022-57.34-51.421-57.34H366.165c-31.609,0-57.234,28.574-57.234,63.821h0c0,24.1,11.977,45.07,29.653,55.932H268c-29.434,0-53.3,24.625-53.3,55h0c0,36.4-28.595,65.911-63.868,65.911H140.114c-36.159,0-65.472,30.25-65.472,67.566h0c0,37.316,29.313,67.566,65.472,67.566h0c35.273,0,63.868,29.509,63.868,65.911V702.87c0,30.376,23.861,55,53.3,55h248c1.871.181,3.767.277,5.685.277H917.908a58.265,58.265,0,0,0,58.265-58.265h0A58.265,58.265,0,0,0,917.908,641.617Z" transform="translate(0 -40.289)"/>
    <rect id="Rectangle_26" data-name="Rectangle 26" class="cls-2" width="7.254" height="166.224" transform="translate(489.801 552.147) rotate(10.732)"/>
    <path id="Path_341" data-name="Path 341" class="cls-2" d="M2067.2,1543.478h8.573l-31.947-165.44-7.127,1.351Z" transform="translate(-1364.766 -825.906)"/>
    <path id="Path_342" data-name="Path 342" class="cls-2" d="M1551.626,1543.478h8.573l-31.948-165.44-7.127,1.351Z" transform="translate(-1006.144 -825.906)"/>
    <path id="Path_343" data-name="Path 343" class="cls-2" d="M1864.4,1545.175l-6.96.083,30.629-164.781,7.127,1.351Z" transform="translate(-1240.082 -827.603)"/>
    <path id="Path_344" data-name="Path 344" class="cls-3" d="M1398.37,644.511c28.223,3.023,64.746,6.211,101.412,68.433,40.074,68.005,18.979,169.588-12.651,197.817s-134.932,63.084-221.771,10.9c0,0-52.434-31.622-25.525-84.1,41.411-80.762,35.56-97.6,54.076-129.253S1338.463,638.1,1398.37,644.511Z" transform="translate(-805.143 -315.188)"/>
    <path id="Path_345" data-name="Path 345" class="cls-4" d="M1538.71,725.561c-25.026-42.469-49.985-57.433-72.283-63.618,8.625,8.926,17.369,20.408,26.122,35.261,40.074,68,18.979,169.588-12.651,197.817-28.049,25.033-112.464,55.268-191.778,25.4a80.574,80.574,0,0,0,16.169,13.858c86.839,52.18,190.141,17.326,221.771-10.9S1578.784,793.566,1538.71,725.561Z" transform="translate(-844.071 -327.805)"/>
    <path id="Path_346" data-name="Path 346" class="cls-5" d="M491.795,772.34c-.8,6.309,5.769,11.315,11.612,10.92A14.378,14.378,0,0,0,516.29,771.18c1.022-6.87-3.106-12.365-9.492-12.868a7.968,7.968,0,0,0-8.4,10.627c1.287,4,4.942,5.5,6.783,4.391a1.829,1.829,0,0,0-.389-3.415,1.8,1.8,0,0,0-1.784.769c-1.521-.6-2.968-3.372-1.986-6.361,1.255-3.818,6.081-4.037,9.079-2.256,3.816,2.266,4.415,7.147,3.016,11.036a11.743,11.743,0,0,1-9.846,7.61,9.15,9.15,0,0,1-9.694-8.367A.893.893,0,0,0,491.795,772.34Z" transform="translate(-290.117 -394.815)"/>
    <path id="Path_347" data-name="Path 347" class="cls-6" d="M1463.939,985.671l-7.254,21.762,22.107-8.7Z" transform="translate(-961.321 -552.983)"/>
    <path id="Path_348" data-name="Path 348" class="cls-7" d="M1486.87,772.937c-1.474.061-5.512,1.408-11.418,12.531-7.542,14.2-18.564,57.114-18.564,57.114l32.9,12.211,4.227-8.956,6.962-68.951S1487.279,772.92,1486.87,772.937Z" transform="translate(-961.463 -405.01)"/>
    <path id="Path_349" data-name="Path 349" class="cls-8" d="M1594.1,752.619c-9.408.013-32.688,2.748-43.493,6.189,0,0-7.937,67.99,7.146,119.654,3.376,11.564-2.793,47.941-2.793,47.941l97.493-1.282s-11.55-87.941-7.2-102.146,4.455-63.71,4.455-63.71-.668-.1-21.9-3.762A221.462,221.462,0,0,0,1594.1,752.619Z" transform="translate(-1025.203 -390.877)"/>
    <path id="Path_350" data-name="Path 350" class="cls-9" d="M1717.687,1738.023s-2.156,24.809-6.122,31.68.208,18.55.417,20.153,8.349,3.893,21.289,2.519,12.732-4.351,11.688-9.16-7.931-10.992-8.349-15.573,3.966-21.069,3.966-21.069Z" transform="translate(-1137.426 -1076.304)"/>
    <path id="Path_351" data-name="Path 351" class="cls-2" d="M1403.9,1252.743s-67.3-3.724-82.327,5.346,2.718,27.7,2.718,27.7,54.789,23.741,146.514,29.016c21.721,1.249,23.593-56.443,19.531-61.217S1403.9,1252.743,1403.9,1252.743Z" transform="translate(-863.137 -737.694)"/>
    <path id="Path_352" data-name="Path 352" class="cls-2" d="M1731.682,1870.1c13.325-1.415,11.677-7.939,10.6-12.891-.673-3.1-4.5-6.756-6.774-10.214-1.191.946-3.129,2.616-8.915,4.319-6.009,1.769-14.247-1.732-19.5-3.925a63.937,63.937,0,0,0-1.782,17.13C1705.534,1866.165,1718.358,1871.51,1731.682,1870.1Z" transform="translate(-1134.224 -1152.1)"/>
    <path id="Path_353" data-name="Path 353" class="cls-10" d="M1731.339,1302.248c-2.689,20.277-16,121.221-16,121.221l30.89,3.817s37.986-131.756,36.038-151.908-16.167-21.848-16.167-21.848S1738.455,1248.571,1731.339,1302.248Z" transform="translate(-1141.235 -739.216)"/>
    <path id="Path_354" data-name="Path 354" class="cls-2" d="M1621.1,482.32s7.389-8.586,13.332,1.859c0,0,4.578-2.832,7.79,2.213,0,0,8.273-2.744,10.28,10.888,0,0,4.257-.885,4.819,4.691a14.825,14.825,0,0,1-2.008,9.294s2.392,1.976,1.305,7.1c-.924,4.359-4.2,5.023-4.2,5.023s-.883,7.347-3.775,9.56-6.827,1.151-6.827,1.151-1.044,3.983-4.417,3.629-7.55-3.895-11.325-2.3-13.573-.089-13.573-.089-11-5.4-7.71-17.792c0,0-5.783-5.754-.723-12.658,0,0-3.694-10.8,3.614-17.172S1621.1,482.32,1621.1,482.32Z" transform="translate(-1062.4 -200.553)"/>
    <path id="Path_355" data-name="Path 355" class="cls-9" d="M1668.624,662.569l-1.858,13.783s-4.161,19.857,1.192,23.685,22.77-24.252,22.77-24.252l-1.84-34.925Z" transform="translate(-1106.378 -313.14)"/>
    <path id="Path_356" data-name="Path 356" class="cls-11" d="M1693.65,652.179c-4.422,11.912-14.956,19.235-22.433,22.075l1.575-11.686,20.264-21.708Z" transform="translate(-1110.546 -313.14)"/>
    <path id="Path_357" data-name="Path 357" class="cls-9" d="M1643.8,518.054a18.42,18.42,0,0,0-24.106,14.678,139.241,139.241,0,0,0-1.494,17.684c-.293,16.1,8.041,31.766,15.351,31.766s27.513-10.421,28.244-33.275C1662.248,534.8,1655.2,521.979,1643.8,518.054Z" transform="translate(-1073.664 -227.026)"/>
    <path id="Path_358" data-name="Path 358" class="cls-9" d="M1743.733,612.92c0,3.551,2.354,6.43,5.258,6.43s5.258-2.879,5.258-6.43-2.354-6.43-5.258-6.43S1743.733,609.369,1743.733,612.92Z" transform="translate(-1160.987 -289.233)"/>
    <path id="Path_359" data-name="Path 359" class="cls-2" d="M1302.085,413.78c-7.551,5.982-10.2,15.071-5.91,20.3s13.883,4.62,21.434-1.361,10.2-15.071,5.91-20.3S1309.636,407.8,1302.085,413.78Z" transform="translate(-848.246 -151.767)"/>
    <path id="Path_360" data-name="Path 360" class="cls-9" d="M1625.626,799.039c-9.115-3.408-13.574,78.446-14.8,112.137-16.142,1.548-44.278.012-51.284-.513-3.3-.247-10.892-3.02-14.169-3.447a32.923,32.923,0,0,0-8.053-.38c-.606.105-17.432,6.963-18.871,8.467-1.785,1.865-6.611,6.569-5.8,8.6s9.281-5.668,9.281-5.668l4.138-2.314c-5.151,5.015-14.976,11.62-13.561,14.025,1.38,2.346,10.243-4.357,16.559-8.925-5.417,4.877-12.148,13.6-10.6,14.965,1.394,1.222,9.05-8.881,17.232-11.791,3.032-1.078,6.054,1.908,8.439,2.268,1.753.265,4.459.829,6.179.343l8.859-2.5c3.018.272,3.094,2.051,6.141,2.7,3.538.75,9.343,1.54,13.848,2.638,25.946,6.318,34.6,9.252,42.544,9.247C1645.774,938.873,1647.169,807.093,1625.626,799.039Z" transform="translate(-1000.055 -423.094)"/>
    <path id="Path_361" data-name="Path 361" class="cls-1" d="M1856.751,858.409c1.707-34.51,1.458-77.045-17.954-84.3-7.659-2.863-21.161,14.354-18.733,85C1830.428,859.963,1845.641,860.65,1856.751,858.409Z" transform="translate(-1213.881 -405.618)"/>
    <path id="Path_362" data-name="Path 362" class="cls-6" d="M1584.494,1003h1.978l29.746,72.851-2.049-.311Z" transform="translate(-1050.223 -565.038)"/>
    <path id="Path_363" data-name="Path 363" class="cls-9" d="M1365.543,1807.733s2.7,8.612-2.131,14.308-24.881,11.283-27.513,14.368-2.433,5.712-2.433,5.712l56.287-1.544-.613-16.941-2.592-12.174Z" transform="translate(-875.61 -1124.794)"/>
    <path id="Path_364" data-name="Path 364" class="cls-2" d="M1340.065,1861.112s14.463,5.831,21.449,2.379,6.776-4.408,8.8-3.121,2.745,17.169,2.745,17.169l-63.293,1.854c-4.4-.1-6.632-3.333-3.053-6.1a51.6,51.6,0,0,1,6.9-4.089C1318.563,1866.372,1340.065,1861.112,1340.065,1861.112Z" transform="translate(-855.765 -1161.025)"/>
    <path id="Path_365" data-name="Path 365" class="cls-10" d="M1332.629,1271.793c-4.35-9.124-14.245-21-31.654-13.848-16.6,6.824-21.061,23.6-15.822,40.768s39.727,118.128,40.929,132.009l27.537.182s-5-79.938-6.232-99.259C1346.205,1313.052,1340.158,1287.585,1332.629,1271.793Z" transform="translate(-840.563 -740.847)"/>
    <path id="Path_366" data-name="Path 366" class="cls-12" d="M1285.278,1003h92.048a6,6,0,0,1,5.553,3.725l28.342,69.126h50.746a2.568,2.568,0,0,1,2.569,2.568h0a2.569,2.569,0,0,1-2.569,2.567H1317.538a10.082,10.082,0,0,1-9.2-5.953l-28.538-63.573A6,6,0,0,1,1285.278,1003Z" transform="translate(-837.915 -565.038)"/>
    <ellipse id="Ellipse_9" data-name="Ellipse 9" class="cls-13" cx="45.45" cy="45.545" rx="45.45" ry="45.545" transform="translate(710.257 249.092)"/>
    <g id="Group_99" data-name="Group 99" transform="translate(706.827 246)">
      <g id="Group_98" data-name="Group 98">
        <g id="Group_92" data-name="Group 92" transform="translate(0 47.741)">
          <rect id="Rectangle_27" data-name="Rectangle 27" class="cls-12" width="16.755" height="1.29"/>
        </g>
        <g id="Group_93" data-name="Group 93" transform="translate(81.108 47.741)">
          <rect id="Rectangle_28" data-name="Rectangle 28" class="cls-12" width="16.755" height="1.29"/>
        </g>
        <g id="Group_94" data-name="Group 94" transform="translate(48.166)">
          <rect id="Rectangle_29" data-name="Rectangle 29" class="cls-12" width="1.287" height="16.79"/>
        </g>
        <g id="Group_95" data-name="Group 95" transform="translate(48.166 80.951)">
          <rect id="Rectangle_30" data-name="Rectangle 30" class="cls-12" width="1.287" height="16.79"/>
        </g>
        <path id="Path_367" data-name="Path 367" class="cls-12" d="M2310.117,529.008a1.387,1.387,0,1,1-1.387-1.39A1.388,1.388,0,0,1,2310.117,529.008Z" transform="translate(-2259.85 -480.37)"/>
        <g id="Group_96" data-name="Group 96" transform="translate(23.338 23.043)">
          <path id="Path_368" data-name="Path 368" class="cls-12" d="M2253.537,474.322a.617.617,0,0,1-.439-.182l-24.921-24.974a.62.62,0,0,1,.876-.879l24.922,24.974a.621.621,0,0,1-.438,1.061Z" transform="translate(-2227.995 -448.105)"/>
        </g>
        <g id="Group_97" data-name="Group 97" transform="translate(48.589 48.638)">
          <path id="Path_369" data-name="Path 369" class="cls-12" d="M2319.248,557.423a.448.448,0,0,1-.225-.262l-8.056-24.383a.451.451,0,1,1,.856-.284l8.056,24.383a.451.451,0,0,1-.631.546Z" transform="translate(-2310.944 -532.184)"/>
        </g>
      </g>
    </g>
    <path id="Path_370" data-name="Path 370" class="cls-2" d="M2549.38,813.212l4.057-6.589-3.258-1.321a1.393,1.393,0,0,1-.767-1.814h0a1.392,1.392,0,0,1,1.814-.767l3.758,1.523,3.627-5.917-3.48-1.411a1.393,1.393,0,0,1-.767-1.814h0a1.393,1.393,0,0,1,1.814-.767l3.979,1.613,4.212-6.776a1.393,1.393,0,0,1,1.707-.556l.607.247a1.392,1.392,0,0,1,.664,2.018l-3.918,6.394,5.769,2.339,4.212-6.776a1.393,1.393,0,0,1,1.707-.556l.663.269a1.393,1.393,0,0,1,.664,2.019l-3.918,6.394,3.258,1.321a1.393,1.393,0,0,1,.768,1.814h0a1.393,1.393,0,0,1-1.815.768l-3.757-1.524-3.572,5.94,3.48,1.411a1.393,1.393,0,0,1,.767,1.814h0a1.393,1.393,0,0,1-1.814.768l-3.979-1.614-4.3,6.988a1.393,1.393,0,0,1-1.709.561l-.71-.288a1.393,1.393,0,0,1-.662-2.021l4.056-6.589-5.768-2.34-4.3,6.988a1.393,1.393,0,0,1-1.71.56l-.71-.288A1.393,1.393,0,0,1,2549.38,813.212Zm14.7-5.279,3.627-5.917-5.769-2.34-3.627,5.917Z" transform="translate(-1721.235 -415.845)"/>
    <path id="Path_371" data-name="Path 371" class="cls-5" d="M1377.523,218.135l4.148-9.362-5.36-8.724a1.407,1.407,0,0,1,1.343-2.136l10.185,1.052,6.641-7.794a1.407,1.407,0,0,1,2.447.618l2.147,10.012,9.465,3.907a1.407,1.407,0,0,1,.169,2.518l-8.858,5.136-.791,10.209a1.407,1.407,0,0,1-2.343.939l-7.622-6.838-9.953,2.4A1.407,1.407,0,0,1,1377.523,218.135Z" transform="translate(-905.267)"/>
    <path id="Path_372" data-name="Path 372" class="cls-2" d="M2360.357,233.785l3.111-7.022-4.021-6.544a1.056,1.056,0,0,1,1.008-1.6l7.64.789,4.981-5.846a1.055,1.055,0,0,1,1.835.463l1.611,7.51,7.1,2.931a1.056,1.056,0,0,1,.126,1.889L2377.1,230.2l-.594,7.658a1.055,1.055,0,0,1-1.757.7l-5.717-5.129-7.466,1.8A1.055,1.055,0,0,1,2360.357,233.785Z" transform="translate(-1589.155 -15.659)"/>
    <path id="Path_373" data-name="Path 373" class="cls-13" d="M2252.713,897.039l-.493-5.817-5.072-2.892a.8.8,0,0,1,.086-1.436l5.38-2.266,1.183-5.717a.8.8,0,0,1,1.393-.362l3.818,4.416,5.8-.641a.8.8,0,0,1,.775,1.212l-3.021,5,2.4,5.32a.8.8,0,0,1-.914,1.111l-5.685-1.329-4.317,3.93A.8.8,0,0,1,2252.713,897.039Z" transform="translate(-1510.871 -478.278)"/>
    <path id="Path_374" data-name="Path 374" class="cls-5" d="M858.873,655.482l2.282-5.15-2.949-4.8a.774.774,0,0,1,.739-1.175l5.6.579,3.653-4.287a.774.774,0,0,1,1.346.34l1.181,5.507,5.206,2.149a.774.774,0,0,1,.093,1.385l-4.873,2.825-.435,5.616a.774.774,0,0,1-1.289.516l-4.193-3.761-5.475,1.322A.774.774,0,0,1,858.873,655.482Z" transform="translate(-544.951 -312.803)"/>
    <path id="Path_375" data-name="Path 375" class="cls-13" d="M1315.967,593.871l2.281-5.15-2.949-4.8a.774.774,0,0,1,.739-1.175l5.6.579,3.653-4.287a.774.774,0,0,1,1.346.339l1.181,5.507,5.206,2.149a.774.774,0,0,1,.093,1.385l-4.872,2.825-.435,5.616a.774.774,0,0,1-1.289.516l-4.193-3.761-5.475,1.321A.774.774,0,0,1,1315.967,593.871Z" transform="translate(-862.896 -269.948)"/>
    <path id="Path_376" data-name="Path 376" class="cls-14" d="M1028.146,336.849l9.041-1.311,3.717,14.315,13.456-.287,4.533,10.258,5.193-2.295-6.063-13.719-12.752.272-3.868-14.891-13.6,1.973Z" transform="translate(-662.997 -96.348)"/>
    <path id="Path_377" data-name="Path 377" class="cls-13" d="M1868.164,263.817l3.122,8.586-13.26,6.55,3.017,13.117-9.122,6.524,3.3,4.617,12.2-8.725-2.859-12.43,13.794-6.814-4.7-12.92Z" transform="translate(-1236.24 -49.836)"/>
    <path id="Path_378" data-name="Path 378" class="cls-2" d="M1025.47,970.76l6.842-6.054,10.957,9.933,11.1-7.618,9.416,6.093,3.084-4.766-12.592-8.149-10.515,7.22-11.4-10.333-10.3,9.11Z" transform="translate(-659.007 -533.099)"/>
    <path id="Path_379" data-name="Path 379" class="cls-14" d="M739.583,1085.737l5.741-9.326-4.611-1.87a1.971,1.971,0,0,1-1.086-2.568h0a1.971,1.971,0,0,1,2.568-1.086l5.317,2.156,5.133-8.375-4.925-2a1.971,1.971,0,0,1-1.086-2.568h0a1.972,1.972,0,0,1,2.568-1.086l5.631,2.284,5.961-9.59a1.972,1.972,0,0,1,2.415-.786l.86.349a1.972,1.972,0,0,1,.94,2.857l-5.545,9.049,8.165,3.311,5.961-9.59a1.972,1.972,0,0,1,2.415-.786l.939.381a1.971,1.971,0,0,1,.94,2.857l-5.545,9.05,4.611,1.87a1.971,1.971,0,0,1,1.086,2.568h0a1.971,1.971,0,0,1-2.568,1.086l-5.317-2.156-5.055,8.407,4.925,2a1.972,1.972,0,0,1,1.086,2.568h0a1.971,1.971,0,0,1-2.568,1.086l-5.631-2.284-6.089,9.89a1.971,1.971,0,0,1-2.419.793l-1.006-.408a1.971,1.971,0,0,1-.938-2.86l5.742-9.325-8.165-3.311-6.089,9.89a1.971,1.971,0,0,1-2.42.793l-1.005-.408A1.972,1.972,0,0,1,739.583,1085.737Zm20.8-7.471,5.133-8.375-8.164-3.311-5.133,8.374Z" transform="translate(-462.316 -598.273)"/>
    <path id="Path_380" data-name="Path 380" class="cls-12" d="M2190.613,357.454a53.191,53.191,0,1,0,53.081,53.191A53.136,53.136,0,0,0,2190.613,357.454Zm2.847,98.647a45.545,45.545,0,1,1,42.514-48.308A45.485,45.485,0,0,1,2193.46,456.1Z" transform="translate(-1434.905 -116.008)"/>
    <rect id="Rectangle_31" data-name="Rectangle 31" class="cls-15" width="875.096" height="5.935" transform="translate(112.529 716.732)"/>
    <path id="Path_381" data-name="Path 381" class="cls-16" d="M1646.892,671.757l14.152-.231s-.238,5.381-6.459,5.662C1647,677.531,1646.892,671.757,1646.892,671.757Z" transform="translate(-1093.626 -334.47)"/>
    <g id="Group_111" data-name="Group 111" transform="translate(156.492 553.034)">
      <g id="Group_110" data-name="Group 110" transform="translate(0)">
        <g id="Group_100" data-name="Group 100" transform="translate(0 17.11)">
          <path id="Path_382" data-name="Path 382" class="cls-17" d="M404.365,1552.642c-10.073-9.49-13.149-25.956-8.026-42.97,3.665-12.173,2.587-26.917-2.681-36.69-2.9-5.388-6.835-8.852-11.682-10.3-12.457-3.71-17.233-1.2-18-.709a11.737,11.737,0,0,1-18.145-14.853c2-2.693,13.476-15.682,42.843-6.935,10.888,3.243,19.755,10.731,25.643,21.653,8.159,15.135,9.923,36.565,4.5,54.6-2.051,6.813-1.913,13.322.37,17.411a5.116,5.116,0,0,0,1.932,2.184.058.058,0,0,1,.018-.009c3.807-1.4,7.743-9.71,9.011-14.925a11.737,11.737,0,0,1,22.847,5.385c-.6,2.558-6.345,25.175-23.764,31.574a23.565,23.565,0,0,1-8.141,1.465A24.328,24.328,0,0,1,404.365,1552.642Zm-39.731-91.462.007-.009Zm.011-.015.01-.013Zm.012-.017.013-.017Z" transform="translate(-343.515 -1437.204)"/>
        </g>
        <g id="Group_101" data-name="Group 101" class="cls-18" transform="translate(0 17.11)">
          <path id="Path_383" data-name="Path 383" class="cls-17" d="M404.365,1552.642c-10.073-9.49-13.149-25.956-8.026-42.97,3.665-12.173,2.587-26.917-2.681-36.69-2.9-5.388-6.835-8.852-11.682-10.3-12.457-3.71-17.233-1.2-18-.709a11.737,11.737,0,0,1-18.145-14.853c2-2.693,13.476-15.682,42.843-6.935,10.888,3.243,19.755,10.731,25.643,21.653,8.159,15.135,9.923,36.565,4.5,54.6-2.051,6.813-1.913,13.322.37,17.411a5.116,5.116,0,0,0,1.932,2.184.058.058,0,0,1,.018-.009c3.807-1.4,7.743-9.71,9.011-14.925a11.737,11.737,0,0,1,22.847,5.385c-.6,2.558-6.345,25.175-23.764,31.574a23.565,23.565,0,0,1-8.141,1.465A24.328,24.328,0,0,1,404.365,1552.642Zm-39.731-91.462.007-.009Zm.011-.015.01-.013Zm.012-.017.013-.017Z" transform="translate(-343.515 -1437.204)"/>
        </g>
        <path id="Path_384" data-name="Path 384" class="cls-17" d="M951.84,1887.215s6.585,1.505,7.412,5.5-4.327,5.052-8.611,3.4-5.4-8.846-5.283-10.161C945.485,1884.566,951.84,1887.215,951.84,1887.215Z" transform="translate(-762.14 -1731.956)"/>
        <path id="Path_385" data-name="Path 385" class="cls-19" d="M951.84,1887.215s6.585,1.505,7.412,5.5-4.327,5.052-8.611,3.4-5.4-8.846-5.283-10.161C945.485,1884.566,951.84,1887.215,951.84,1887.215Z" transform="translate(-762.14 -1731.956)"/>
        <path id="Path_386" data-name="Path 386" class="cls-17" d="M935,1660.6c-2.212,5.506-1.467,17.116,1.793,13.855-1.141,6.52-2.282,40.589,3.26,46.62s7.01-19.235,14.834-32.765,7.335-42.708,4.4-49.717S942.333,1642.347,935,1660.6Z" transform="translate(-754.059 -1558.677)"/>
        <path id="Path_387" data-name="Path 387" class="cls-19" d="M935,1660.6c-2.212,5.506-1.467,17.116,1.793,13.855-1.141,6.52-2.282,40.589,3.26,46.62s7.01-19.235,14.834-32.765,7.335-42.708,4.4-49.717S942.333,1642.347,935,1660.6Z" transform="translate(-754.059 -1558.677)"/>
        <path id="Path_388" data-name="Path 388" class="cls-17" d="M730.23,1689.5c5.566,6.384,12.455,15.313,7.652,15.541.987,15.912-12.423,35.087-20.666,39.466s-23.974-.745-31.217-14.953-1.324-37.958,5.669-43.921a23.755,23.755,0,0,1,3.623-2.517C706.827,1676.531,721.5,1679.491,730.23,1689.5Z" transform="translate(-579.441 -1588.7)"/>
        <path id="Path_389" data-name="Path 389" class="cls-17" d="M734.4,1872.9c1.379.209,2.755.368,4.143.494,5.416.495,18.97,1.833,21.271,3.034,2.887,1.506,2.328,7.048-9.526,7.022s-25.8-2.067-30-6.562C716.217,1872.535,715.316,1870.013,734.4,1872.9Z" transform="translate(-603.927 -1722.298)"/>
        <path id="Path_390" data-name="Path 390" class="cls-20" d="M720.3,1876.934c-2.721-2.91-4.016-5,1.115-5.2a100.444,100.444,0,0,1,11.133,1.217c1.378.208,2.755.367,4.143.494,5.416.494,18.971,1.833,21.271,3.034,2.837,1.479,2.321,6.842-8.936,7.005C737.463,1883.316,724.352,1881.271,720.3,1876.934Z" transform="translate(-603.938 -1722.342)"/>
        <path id="Path_391" data-name="Path 391" class="cls-17" d="M704.541,1487.561s2.608,27.06-8.476,29.993-22.169-8.151-26.733-7.5.326,3.912.326,3.912-23.147.652-32.6,10.759,3.586,2.608,3.586,2.608-19.235,22.169-10.759,48.576,29.342,35.535,65.855,24.451,31.623-22.169,31.623-22.169,5.868,1.956,7.173-6.846c1.956,3.26,20.213-16.3,7.824-62.921S704.541,1487.561,704.541,1487.561Z" transform="translate(-541.206 -1450.186)"/>
        <path id="Path_392" data-name="Path 392" class="cls-20" d="M640.642,1607.711s-13.041,7.5-3.586-2.608c4.639-4.96,12.574-7.64,19.455-9.086-6.584,6.86-19.04,22.954-16.2,44.3,3.826,28.713,23.583,41.958,63.168,37.321.745-.087,1.446-.183,2.162-.275-2.911,1.119-6.183,2.248-9.906,3.378-36.513,11.084-57.378,1.956-65.854-24.451S640.642,1607.711,640.642,1607.711Z" transform="translate(-541.206 -1530.562)"/>
        <g id="Group_102" data-name="Group 102" transform="translate(164.963 61.976)">
          <path id="Path_393" data-name="Path 393" class="cls-19" d="M1006.6,1584.589c.164.688.311,1.36.462,2.035C1006.414,1585.96,1005.913,1585.14,1006.6,1584.589Z" transform="translate(-969.477 -1584.589)"/>
          <path id="Path_394" data-name="Path 394" class="cls-19" d="M887.408,1652.416c-7.862-24.493,9.979-45.055,9.979-45.055s-12.1,6.954-3.326-2.419c7.609-8.134,24.77-9.664,29.18-9.927,8.9,41.629-7.612,59.1-9.468,56.011-1.3,8.8-7.172,6.846-7.172,6.846s2.368,5.412-8.642,12.452C893.307,1665.909,889.816,1659.918,887.408,1652.416Z" transform="translate(-885.406 -1591.842)"/>
        </g>
        <path id="Path_395" data-name="Path 395" class="cls-20" d="M874.029,1487.561s25.429-25.755,37.818,20.865c.424,1.594.8,3.151,1.158,4.682a36.712,36.712,0,0,1-17.466,5.773,36.149,36.149,0,0,1-24.148-6.917C875.529,1503.172,874.029,1487.561,874.029,1487.561Z" transform="translate(-710.695 -1450.185)"/>
        <path id="Path_396" data-name="Path 396" class="cls-17" d="M893.035,1381.1c-1.89-1.7-14.227,18.563-12.955,34.057s27.982-4.251,27.982-4.251S905.778,1392.545,893.035,1381.1Z" transform="translate(-716.675 -1381.001)"/>
        <path id="Path_397" data-name="Path 397" class="cls-20" d="M893.035,1381.1c-1.89-1.7-14.227,18.563-12.955,34.057s27.982-4.251,27.982-4.251S905.778,1392.545,893.035,1381.1Z" transform="translate(-716.675 -1381.001)"/>
        <path id="Path_398" data-name="Path 398" class="cls-21" d="M897.2,1402.375c-1.593-1.431-11.991,15.645-10.918,28.7s23.583-3.583,23.583-3.583S907.941,1412.02,897.2,1402.375Z" transform="translate(-721 -1395.81)"/>
        <path id="Path_399" data-name="Path 399" class="cls-17" d="M985.664,1403.468s11.8-15.3,13.846-16.755,6.576,20.886,4.663,28.2S985.664,1403.468,985.664,1403.468Z" transform="translate(-790.181 -1384.926)"/>
        <path id="Path_400" data-name="Path 400" class="cls-21" d="M988.489,1417.1s9.663-12.529,11.336-13.718,5.384,17.1,3.818,23.089S988.489,1417.1,988.489,1417.1Z" transform="translate(-792.146 -1396.529)"/>
        <ellipse id="Ellipse_10" data-name="Ellipse 10" class="cls-17" cx="29.178" cy="25.918" rx="29.178" ry="25.918" transform="translate(161.052 13.577)"/>
        <path id="Path_401" data-name="Path 401" class="cls-19" d="M981.842,1436.667c8.833,4.455,14.8,12.88,14.8,22.548s-5.964,18.093-14.8,22.549c-8.834-4.455-14.8-12.881-14.8-22.549S973.008,1441.122,981.842,1436.667Z" transform="translate(-777.229 -1419.721)"/>
        <path id="Path_402" data-name="Path 402" class="cls-17" d="M917.161,1469.185c0,17.6-15.5,31.872-34.616,31.872s-34.615-14.269-34.615-31.872S917.161,1451.583,917.161,1469.185Z" transform="translate(-694.376 -1433.157)"/>
        <path id="Path_403" data-name="Path 403" class="cls-20" d="M865.693,1460.928c-7.7,2.345-12.952,6.025-12.952,11.039,0,14.878,10.348,27.525,24.776,32.191-16.734-2.244-29.587-15.5-29.587-31.533C847.93,1466.793,855.531,1462.9,865.693,1460.928Z" transform="translate(-694.376 -1436.597)"/>
        <path id="Path_404" data-name="Path 404" class="cls-19" d="M963.225,1457.408c13.714,1.3,25.33,5.558,25.33,12.768,0,12.985-8.439,24.15-20.54,29.116-10.529-6.632-17.445-17.768-17.445-30.4C950.57,1463.774,955.646,1459.95,963.225,1457.408Z" transform="translate(-765.77 -1434.148)"/>
        <path id="Path_405" data-name="Path 405" class="cls-20" d="M862.958,1706.235c.146-6.184,7.281-9.886,12.19-6.123,3.684,2.823,7.047,8.441,7.924,19.355a167.512,167.512,0,0,1,.46,22.1,71.467,71.467,0,0,1-15.768,7.7c-.47-8.816-1.184-18.645-1.856-25.719C863.641,1726.735,862.745,1715.26,862.958,1706.235Z" transform="translate(-704.808 -1601.914)"/>
        <path id="Path_406" data-name="Path 406" class="cls-17" d="M699.213,1894.476c1.438.218,2.874.383,4.322.516,5.648.516,19.786,1.912,22.185,3.164,3.012,1.571,2.428,7.351-9.935,7.323s-26.906-2.156-31.289-6.844C680.251,1894.092,679.311,1891.461,699.213,1894.476Z" transform="translate(-578.959 -1737.266)"/>
        <path id="Path_407" data-name="Path 407" class="cls-20" d="M692.008,1893.539c-2.434.744-1.112,2.642,1.189,5.1,3.742,4,14.891,6.134,25.766,6.69-.966.093-2,.156-3.168.153-12.363-.027-26.905-2.155-31.288-6.844C680.859,1894.741,679.666,1892.254,692.008,1893.539Z" transform="translate(-578.969 -1737.275)"/>
        <g id="Group_109" data-name="Group 109" transform="translate(152.129 24.038)">
          <path id="Path_408" data-name="Path 408" class="cls-21" d="M957.177,1483.954c0,9.835-4.328,19.2-9.666,19.2s-9.666-9.363-9.666-19.2C937.844,1475.814,957.177,1475.882,957.177,1483.954Z" transform="translate(-909.048 -1472.423)"/>
          <g id="Group_103" data-name="Group 103" transform="translate(31.357 8.585)">
            <path id="Path_409" data-name="Path 409" class="cls-22" d="M948.322,1490.768c.162,1.471.29,2.664-.277,2.726s-1.606-2-1.768-3.469.614-1.8,1.181-1.858S948.161,1489.3,948.322,1490.768Z" transform="translate(-946.256 -1488.166)"/>
            <path id="Path_410" data-name="Path 410" class="cls-22" d="M985.835,1490.768c-.162,1.471-.29,2.664.277,2.726s1.606-2,1.768-3.469-.614-1.8-1.182-1.858S986,1489.3,985.835,1490.768Z" transform="translate(-973.691 -1488.166)"/>
          </g>
          <path id="Path_411" data-name="Path 411" class="cls-23" d="M948.512,1534.26a1.476,1.476,0,0,0-.67,2.056c1.716,3.21,3.994,5.285,6.5,5.285s4.777-2.069,6.492-5.27a1.476,1.476,0,0,0-.669-2.056A15.771,15.771,0,0,0,948.512,1534.26Z" transform="translate(-915.876 -1510.872)"/>
          <g id="Group_104" data-name="Group 104" transform="translate(25.606 4.593)">
            <path id="Path_412" data-name="Path 412" class="cls-24" d="M927.365,1477.649a10.555,10.555,0,0,0,.952,1.238,10.177,10.177,0,0,0,2.592,2.154,5.725,5.725,0,0,0,3.839.729,8.317,8.317,0,0,0,4.691-3.036c1.662-1.9,1.738-2.917.918-3.375s-2.538-.356-4.462-.017a54.03,54.03,0,0,0-5.708,1.408C928.535,1477.242,927.365,1477.649,927.365,1477.649Z" transform="translate(-927.365 -1475.052)"/>
            <path id="Path_413" data-name="Path 413" class="cls-24" d="M980.977,1477.649a10.559,10.559,0,0,1-.952,1.238,10.181,10.181,0,0,1-2.593,2.154,5.725,5.725,0,0,1-3.839.729,8.318,8.318,0,0,1-4.691-3.036c-1.662-1.9-1.738-2.917-.918-3.375s2.538-.356,4.462-.017a54.061,54.061,0,0,1,5.709,1.408C979.807,1477.242,980.977,1477.649,980.977,1477.649Z" transform="translate(-955.265 -1475.052)"/>
          </g>
          <path id="Path_414" data-name="Path 414" class="cls-23" d="M961.512,1472.383c0-1.2,1.641-1.27,2.461-.45.875-.875,2.461-.85,2.461.408s-2.461,2.109-2.461,2.109S961.512,1473.586,961.512,1472.383Z" transform="translate(-925.511 -1467.869)"/>
          <g id="Group_105" data-name="Group 105" transform="translate(23.776)">
            <path id="Path_415" data-name="Path 415" class="cls-25" d="M930.715,1462.463s-5.156-4.748-9.361-1.153" transform="translate(-921.354 -1459.965)"/>
            <path id="Path_416" data-name="Path 416" class="cls-25" d="M987.09,1462.463s5.155-4.748,9.361-1.153" transform="translate(-967.079 -1459.965)"/>
          </g>
          <g id="Group_108" data-name="Group 108" transform="translate(0 9.225)">
            <g id="Group_106" data-name="Group 106" transform="translate(53.318)">
              <line id="Line_5" data-name="Line 5" class="cls-26" x2="23.607" y2="11.329"/>
              <line id="Line_6" data-name="Line 6" class="cls-26" x2="17.705" y2="10.175" transform="translate(2.239 3.867)"/>
            </g>
            <g id="Group_107" data-name="Group 107">
              <line id="Line_7" data-name="Line 7" class="cls-26" x1="23.607" y2="11.329"/>
              <line id="Line_8" data-name="Line 8" class="cls-26" x1="17.705" y2="10.175" transform="translate(3.663 3.867)"/>
            </g>
          </g>
        </g>
        <path id="Path_417" data-name="Path 417" class="cls-17" d="M861.8,1705.424c.213,9.025,1.649,20.445,3.762,17.159,1.956,13.693,4.564,37.818,4.4,44.664s9.454.815,11.085-4.89,4.89-17.931,1.467-44.664c-1.391-10.86-5.015-16.314-8.827-18.96C868.612,1695.205,861.659,1699.24,861.8,1705.424Z" transform="translate(-704.026 -1601.095)"/>
        <path id="Path_418" data-name="Path 418" class="cls-19" d="M891.546,1701.283c.077.049.156.084.232.137,3.813,2.646,7.436,8.1,8.828,18.96,3.423,26.733.163,38.959-1.467,44.664a11.768,11.768,0,0,1-3.17,4.888c.162-6.851-2.445-30.971-4.4-44.661-2.113,3.286-3.55-8.134-3.762-17.159A7.773,7.773,0,0,1,891.546,1701.283Z" transform="translate(-722.111 -1603.783)"/>
        <path id="Path_419" data-name="Path 419" class="cls-17" d="M883.761,1904.7s-6.683.978-7.824,4.891,3.912,5.379,8.313,4.075,6.357-7.906,6.846-9.209S883.761,1904.7,883.761,1904.7Z" transform="translate(-713.743 -1744.741)"/>
        <path id="Path_420" data-name="Path 420" class="cls-17" d="M883.761,1904.7s-6.683.978-7.824,4.891,3.912,5.379,8.313,4.075,6.357-7.906,6.846-9.209S883.761,1904.7,883.761,1904.7Z" transform="translate(-713.743 -1744.741)"/>
        <path id="Path_421" data-name="Path 421" class="cls-19" d="M902.93,1904.045c1.734-.182,3.288-.191,3.062.412-.489,1.3-2.445,7.906-6.847,9.21-.328.1-.66.174-.993.241a4.662,4.662,0,0,1-.812-4.16C898.043,1906.462,900.989,1904.8,902.93,1904.045Z" transform="translate(-728.639 -1744.744)"/>
        <path id="Path_422" data-name="Path 422" class="cls-17" d="M694.866,1703.191c5.805,6.658,12.99,15.972,7.981,16.208,1.029,16.6-12.958,36.6-21.555,41.163s-25-.777-32.559-15.6-1.381-39.59,5.913-45.809a24.778,24.778,0,0,1,3.779-2.626C670.457,1689.661,685.761,1692.749,694.866,1703.191Z" transform="translate(-553.42 -1597.925)"/>
        <path id="Path_423" data-name="Path 423" class="cls-20" d="M654.648,1702.547a24.766,24.766,0,0,1,3.779-2.626,27.751,27.751,0,0,1,4.887-2.186,26.378,26.378,0,0,0-3.794,2.66c-7.823,6.671-14.444,33.237-6.342,49.132a34.839,34.839,0,0,0,14.672,15.026,31.784,31.784,0,0,1-19.116-16.2C641.18,1733.537,647.353,1708.766,654.648,1702.547Z" transform="translate(-553.421 -1601.315)"/>
        <path id="Path_424" data-name="Path 424" class="cls-19" d="M768.627,1709.014c5.805,6.658,12.99,15.972,7.981,16.208a39.56,39.56,0,0,1-2.958,16.364,7.66,7.66,0,0,1-12.548,2.765,32.852,32.852,0,0,1-6.327-8.616c-4.582-8.989-4.112-21.635-1.406-31.584a3.943,3.943,0,0,1,5.469-2.544A30.076,30.076,0,0,1,768.627,1709.014Z" transform="translate(-627.181 -1603.747)"/>
        <path id="Path_425" data-name="Path 425" class="cls-19" d="M816.563,1648.548a11.093,11.093,0,0,1,1.256-.339c-1.609.763-2.637,1.754-2.4,2.444s1.652.854,3.394.484a11.091,11.091,0,0,1-1.2.493c-2.28.771-4.362.706-4.65-.146S814.283,1649.319,816.563,1648.548Z" transform="translate(-670.025 -1566.866)"/>
        <path id="Path_426" data-name="Path 426" class="cls-20" d="M737.034,1626.8a10.959,10.959,0,0,1,1.256-.338c-1.609.763-2.637,1.754-2.4,2.443s1.652.854,3.394.484a11.046,11.046,0,0,1-1.2.493c-2.28.771-4.362.706-4.649-.146S734.754,1627.568,737.034,1626.8Z" transform="translate(-614.707 -1551.737)"/>
        <path id="Path_427" data-name="Path 427" class="cls-20" d="M704.755,1663.965a10.97,10.97,0,0,1,1.1-.687c-1.319,1.2-2.017,2.442-1.594,3.035s1.828.339,3.389-.519a11,11,0,0,1-1.01.821c-1.959,1.4-3.971,1.938-4.493,1.206S702.8,1665.363,704.755,1663.965Z" transform="translate(-592.889 -1577.347)"/>
        <path id="Path_428" data-name="Path 428" class="cls-19" d="M842.486,1692.817a11.17,11.17,0,0,1,.84-.994c-.888,1.543-1.169,2.943-.584,3.378s1.844-.239,3.065-1.535a10.988,10.988,0,0,1-.708,1.091c-1.435,1.933-3.183,3.065-3.9,2.529S841.051,1694.75,842.486,1692.817Z" transform="translate(-689.475 -1597.202)"/>
      </g>
    </g>
    <path id="Path_429" data-name="Path 429" class="cls-2" d="M1580.479,498.677s-8.587-5.094,1.667-9.5c0,0-2.86-3.2,2.089-5.573,0,0-2.821-5.826,10.637-7.5,0,0-.93-3.007,4.578-3.506a19.218,19.218,0,0,1,9.219,1.26s1.924-1.734,7.009-1.054c4.324.578,5.023,2.891,5.023,2.891s7.279.5,9.5,2.51a4.679,4.679,0,0,1,1.226,4.828s3.953.67,3.647,3.072-3.756,5.432-2.131,8.084.087,9.641.087,9.641-5.2,7.911-17.5,5.794a12.349,12.349,0,0,1-12.511.74s-10.635,2.817-17.032-2.26S1580.479,498.677,1580.479,498.677Z" transform="translate(-1045.089 -196.04)"/>
    <g id="Group_120" data-name="Group 120" transform="translate(707.345 551.356)">
      <path id="Path_430" data-name="Path 430" class="cls-27" d="M2370.129,1589.217c.272-27.171,7.608-62.786-29.617-75.828-5.977-2.174-.815-7.608-8.695-12.5-1.63-1.359,1.631-19.292-2.988-22.552s-31.248-10.325-37.225,17.39-7.88,32.334-2.717,29.888c-.544,9.781.271,12.5,3.8,10.6,1.358,6.25,5.978,10.053,10.325,13.043-1.087,10.6-6.793,50.81-2.989,56.244S2369.857,1616.388,2370.129,1589.217Z" transform="translate(-2245.446 -1444.754)"/>
      <path id="Path_431" data-name="Path 431" class="cls-28" d="M2298.514,1573.26c-5.823-2.117-1.08-7.329-8.115-12.118-5,22.779-6.306,26.617-1.51,24.346-.544,9.781.271,12.5,3.8,10.6a17.254,17.254,0,0,0,4.635,8.383,10.03,10.03,0,0,1,2.476-6.935c2.984-3.344,8.2-5.77,13.623,7.669,8.349,20.675,3.458,32.854,1.869,30.511-.079,1.077,11.317,20.938,9.292,31.031,10.229-2.983,3.45-8.438,3.541-17.655C2328.4,1621.917,2335.738,1586.3,2298.514,1573.26Z" transform="translate(-2245.448 -1504.626)"/>
      <path id="Path_432" data-name="Path 432" class="cls-29" d="M2400.333,1513.4c-5.978-2.173-.815-7.607-8.7-12.5-1.63-1.359,1.63-19.292-2.989-22.552-2.179-1.539-9.259-3.92-16.757-3.1,4.873.5,8.885,2.009,10.43,3.1,4.619,3.26,1.358,21.193,2.988,22.552,7.881,4.891,2.718,10.325,8.7,12.5,37.224,13.043,29.888,48.657,29.616,75.829-.152,15.221-20.938,20.2-39.861,20.685,20.276.515,46.019-3.74,46.188-20.685C2430.221,1562.053,2437.557,1526.439,2400.333,1513.4Z" transform="translate(-2305.267 -1444.762)"/>
      <path id="Path_433" data-name="Path 433" class="cls-20" d="M2341.167,1499.928c-.659-4.04,1.507-18.676-2.623-21.59-4.62-3.261-31.248-10.326-37.225,17.389-.519,2.406-1,4.627-1.46,6.7a26.691,26.691,0,0,0,15.416,6.133c.7.049,1.385.065,2.069.063.678.1,1.362.178,2.058.226C2328.283,1509.466,2336.358,1505.857,2341.167,1499.928Z" transform="translate(-2255.162 -1444.754)"/>
      <g id="Group_118" data-name="Group 118" transform="translate(31.273)">
        <path id="Path_434" data-name="Path 434" class="cls-17" d="M2310.641,1378.063c1.358,2.717,8.151,17.118,9.238,20.107s-11.412,5.162-12.771,5.434.543-26.084.543-27.443S2310.641,1378.063,2310.641,1378.063Z" transform="translate(-2291.138 -1375.726)"/>
        <path id="Path_435" data-name="Path 435" class="cls-29" d="M2310.641,1378.063c1.358,2.717,8.151,17.118,9.238,20.107s-11.412,5.162-12.771,5.434.543-26.084.543-27.443S2310.641,1378.063,2310.641,1378.063Z" transform="translate(-2291.138 -1375.726)"/>
        <path id="Path_436" data-name="Path 436" class="cls-30" d="M2314.586,1407.481c.829,1.657,4.972,10.44,5.635,12.263s-6.96,3.149-7.788,3.314.331-15.908.331-16.737S2314.586,1407.481,2314.586,1407.481Z" transform="translate(-2294.974 -1396.795)"/>
        <path id="Path_437" data-name="Path 437" class="cls-27" d="M2360.442,1398.273s9.985-19.767,12.43-22.417,6.521,9.578,9.578,19.767-.407,14.672-.407,14.672Z" transform="translate(-2328.575 -1375.489)"/>
        <path id="Path_438" data-name="Path 438" class="cls-30" d="M2365.058,1411.232s8.577-16.978,10.677-19.253a1.1,1.1,0,0,1,.122-.107c3.676,3.308,5.974,25.445,6.31,28.884Z" transform="translate(-2331.786 -1386.885)"/>
        <ellipse id="Ellipse_11" data-name="Ellipse 11" class="cls-29" cx="24.454" cy="22.051" rx="24.454" ry="22.051" transform="translate(8.092 19.684)"/>
        <path id="Path_439" data-name="Path 439" class="cls-27" d="M2303.746,1440.731c-12.064,1.355-21.4,10.628-21.4,21.874s9.339,20.519,21.4,21.874c12.064-1.355,21.4-10.628,21.4-21.874S2315.81,1442.086,2303.746,1440.731Z" transform="translate(-2274.252 -1420.87)"/>
        <path id="Path_440" data-name="Path 440" class="cls-29" d="M2268.954,1491.717c0,12.178,10.949,22.051,24.454,22.051s24.455-9.872,24.455-22.051S2268.954,1479.538,2268.954,1491.717Z" transform="translate(-2264.938 -1449.981)"/>
        <path id="Path_441" data-name="Path 441" class="cls-28" d="M2291.883,1513.761c12.794-.711,22.928-10.288,22.928-22,0-5.836-11.23-8.873-22.928-9.116-11.7.243-22.929,3.28-22.929,9.116C2268.954,1503.473,2279.088,1513.05,2291.883,1513.761Z" transform="translate(-2264.938 -1450.022)"/>
        <g id="Group_117" data-name="Group 117" transform="translate(0 34.755)">
          <g id="Group_112" data-name="Group 112" transform="translate(17.407 5.402)">
            <path id="Path_442" data-name="Path 442" class="cls-29" d="M2328.168,1508.2s-.73,2.7,1.033,3.993a3.5,3.5,0,0,0,4.566-.3c.749-.877-1.363-3.4-2.961-3.877A3.354,3.354,0,0,0,2328.168,1508.2Z" transform="translate(-2323.429 -1507.709)"/>
            <path id="Path_443" data-name="Path 443" class="cls-29" d="M2317.764,1507.865s.41,2.548-1.215,3.6-2.913-.167-3.486-1.036,1.024-2.637,2.44-2.947A2.752,2.752,0,0,1,2317.764,1507.865Z" transform="translate(-2312.943 -1507.402)"/>
          </g>
          <path id="Path_444" data-name="Path 444" class="cls-23" d="M2325.327,1504.553c-.118-.558-1.455-.921-2.011-.569-.765-.437-1.935-.207-1.812.376s2.116,1.065,2.116,1.065S2325.446,1505.112,2325.327,1504.553Z" transform="translate(-2301.485 -1499.465)"/>
          <g id="Group_113" data-name="Group 113" transform="translate(10.564)">
            <path id="Path_445" data-name="Path 445" class="cls-31" d="M2366.928,1494a7.969,7.969,0,0,0-7.4.039" transform="translate(-2338.5 -1492.056)"/>
            <path id="Path_446" data-name="Path 446" class="cls-31" d="M2290.463,1490.309s1.341-1.813,5.167.609" transform="translate(-2290.463 -1489.657)"/>
          </g>
          <g id="Group_116" data-name="Group 116" transform="translate(0 5.075)">
            <g id="Group_114" data-name="Group 114">
              <path id="Path_447" data-name="Path 447" class="cls-32" d="M2268.324,1506.4s-9.02-.5-12.562,1.164" transform="translate(-2255.762 -1506.329)"/>
              <path id="Path_448" data-name="Path 448" class="cls-32" d="M2271.351,1515.323s-9.213.66-12.613,3.318" transform="translate(-2257.832 -1512.585)"/>
            </g>
            <g id="Group_115" data-name="Group 115" transform="translate(35.401 1.16)">
              <path id="Path_449" data-name="Path 449" class="cls-32" d="M2375.974,1510.139s9.028.315,12.406,2.3" transform="translate(-2374.78 -1510.139)"/>
              <path id="Path_450" data-name="Path 450" class="cls-32" d="M2372.052,1518.58s9.116,1.491,12.261,4.444" transform="translate(-2372.052 -1516.01)"/>
            </g>
          </g>
        </g>
      </g>
      <path id="Path_451" data-name="Path 451" class="cls-17" d="M2317.13,1672.615a10.039,10.039,0,0,0-2.944,6.8c-.463,11.731-2.182,52.967-3.752,60.466-1.834,8.763,9.17,8.559,10.394,8.152s8.966-34.847,9.17-36.273c1.426,2.445,7.132-9.374.2-30.568C2325.7,1667.415,2320.333,1669.482,2317.13,1672.615Z" transform="translate(-2262.374 -1580.562)"/>
      <path id="Path_452" data-name="Path 452" class="cls-28" d="M2317.13,1672.615a10.039,10.039,0,0,0-2.944,6.8c-.463,11.731-2.182,52.967-3.752,60.466-1.834,8.763,9.17,8.559,10.394,8.152s8.966-34.847,9.17-36.273c1.426,2.445,7.132-9.374.2-30.568C2325.7,1667.415,2320.333,1669.482,2317.13,1672.615Z" transform="translate(-2262.374 -1580.562)"/>
      <path id="Path_453" data-name="Path 453" class="cls-27" d="M2406.014,1719.437s-14.876.815-18.748,8.763-7.54,19.155-3.872,18.544c-2.649,10.189-2.038,28.326,1.019,33.217s34.847,3.872,43.2-1.223S2444.733,1722.087,2406.014,1719.437Z" transform="translate(-2312.103 -1614.733)"/>
      <path id="Path_454" data-name="Path 454" class="cls-33" d="M2395.29,1738.027a6.12,6.12,0,0,0-8,2.666l-.025.052c-3.872,7.948-7.54,19.155-3.872,18.544-2.649,10.19-2.038,28.327,1.019,33.218.715,1.144,3.013,1.96,6.2,2.481,6.064-.687,11.462-1.867,14.248-3.479C2412.211,1787.258,2419.867,1748.93,2395.29,1738.027Z" transform="translate(-2312.103 -1627.277)"/>
      <path id="Path_455" data-name="Path 455" class="cls-29" d="M2445.955,1719.437s-.646.036-1.7.163c36.636,4.109,28.019,54.125,19.8,59.138-4.376,2.668-15.177,4.216-24.915,4.385,10.509.193,23.506-1.391,28.415-4.385C2475.911,1773.643,2484.674,1722.087,2445.955,1719.437Z" transform="translate(-2352.043 -1614.733)"/>
      <g id="Group_119" data-name="Group 119" transform="translate(0 143.557)">
        <path id="Path_456" data-name="Path 456" class="cls-27" d="M2239.312,1884.4c-12.488,0-24.376-1.913-33.6-5.489-4.952-1.922-9.52-3.835-13.55-5.523-13.791-5.778-21.91-8.963-26.238-6.436-3.812,2.225-8.752,1.72-11.341-1.854a8.151,8.151,0,0,1,2.1-11.594c11.728-7.739,24.986-2.185,41.773,4.847,4.129,1.73,8.4,3.518,13.148,5.36,17.258,6.7,41.067,4.445,50.861,1.629a4.462,4.462,0,0,0,2.864-6.139l-.017-.036a8.151,8.151,0,1,1,14.257-7.907c2.393,4.315,5.034,13.84-.242,22.172-2.519,3.977-9.9,9.048-30.753,10.619C2245.477,1884.289,2242.376,1884.4,2239.312,1884.4Z" transform="translate(-2153.031 -1847.064)"/>
      </g>
      <path id="Path_457" data-name="Path 457" class="cls-28" d="M2190.034,1874.8c4.063,1.2,8.668,2.57,13.645,3.9,8.129,2.175,18.321-2.684,9.6-8.216q-.833-.29-1.647-.605c-4.75-1.843-9.02-3.631-13.147-5.361-16.787-7.032-30.044-12.587-41.774-4.847a8.149,8.149,0,0,0-3.582,7.9,7.568,7.568,0,0,0,9.643,4.58,9.594,9.594,0,0,0,1.293-.8C2167.967,1868.455,2176.13,1870.673,2190.034,1874.8Z" transform="translate(-2153.045 -1709.668)"/>
      <path id="Path_458" data-name="Path 458" class="cls-29" d="M2470.2,1851.264a8.155,8.155,0,0,0-9.565-3.827,8.117,8.117,0,0,1,4.719,3.827c2.393,4.315,5.034,13.84-.242,22.172-2.519,3.977-9.9,9.048-30.753,10.62-2.437.184-4.865.273-7.281.312.949.022,1.9.037,2.856.037,3.064,0,6.165-.115,9.271-.349,20.854-1.572,28.234-6.642,30.753-10.62C2475.234,1865.1,2472.592,1855.579,2470.2,1851.264Z" transform="translate(-2343.652 -1703.508)"/>
      <path id="Path_459" data-name="Path 459" class="cls-34" d="M2409.866,1644.657a7.411,7.411,0,0,1-.429-.756c.763.913,1.576,1.413,1.983,1.147s.277-1.212-.254-2.276a7.357,7.357,0,0,1,.52.7c.881,1.346,1.187,2.7.684,3.033S2410.747,1646,2409.866,1644.657Z" transform="translate(-2331.382 -1561.405)"/>
      <path id="Path_460" data-name="Path 460" class="cls-20" d="M2508.16,1760.756a7.445,7.445,0,0,1-.429-.756c.763.914,1.576,1.413,1.984,1.147s.276-1.212-.255-2.277a7.3,7.3,0,0,1,.521.7c.88,1.346,1.186,2.7.684,3.032S2509.04,1762.1,2508.16,1760.756Z" transform="translate(-2399.753 -1642.161)"/>
      <path id="Path_461" data-name="Path 461" class="cls-20" d="M2526.289,1809.944a7.314,7.314,0,0,1-.136-.859c.393,1.123.979,1.877,1.453,1.771s.685-1.037.563-2.22a7.388,7.388,0,0,1,.242.835c.351,1.57.159,2.948-.427,3.08S2526.639,1811.514,2526.289,1809.944Z" transform="translate(-2412.567 -1676.777)"/>
      <path id="Path_462" data-name="Path 462" class="cls-20" d="M2502.987,1793.748a7.376,7.376,0,0,1-.2-.846c.476,1.091,1.116,1.8,1.582,1.656s.6-1.086.394-2.257a7.265,7.265,0,0,1,.3.814c.468,1.539.381,2.928-.193,3.1S2503.454,1795.287,2502.987,1793.748Z" transform="translate(-2396.314 -1665.415)"/>
    </g>
    <path id="Path_463" data-name="Path 463" class="cls-28" d="M2344.273,1605.412s1.743-2.364,5.7.071a14.388,14.388,0,0,0,8.524,1.826s6.7,1.218,3.653,4.262-1.322,7.052-1.322,7.052" transform="translate(-1578.71 -983.347)"/>
    <path id="Path_464" data-name="Path 464" class="cls-29" d="M2500.7,1633.789s.395,5.544,3.135,7.979,4.261,3.957,4.566,6.393a1.781,1.781,0,0,0,2.479,1.645s.26-10.473-3.393-12.6A60.561,60.561,0,0,0,2500.7,1633.789Z" transform="translate(-1687.521 -1003.801)"/>
    <path id="Path_465" data-name="Path 465" class="cls-27" d="M2334.1,1565.581s6.97-1.048,6.057-4.4,2.74-5.175,4.262-2.74,4.871-.609,4.871-.609,3.957-.913,3.348.609a6.641,6.641,0,0,1-1.31,2.2S2345.091,1566.324,2334.1,1565.581Z" transform="translate(-1571.635 -950.615)"/>
    <g id="Group_121" data-name="Group 121" transform="translate(770.311 599.155)">
      <path id="Path_466" data-name="Path 466" class="cls-29" d="M2360.139,1534.017c-.341.561-.442,1.189.223,1.6.448.279,1.282-.047,1.946.107.585.136,1.147.815,1.76.818.656,0,1.19-.67,1.719-.857.645-.228,1.539-.291,1.732-.867-.077-.459-.947-.676-1.538-1.041-.442-.273-.743-1.055-1.327-1.218-.543-.151-1.211.353-1.776.338-.6-.016-1.272-.536-1.779-.354C2360.544,1532.745,2360.44,1533.521,2360.139,1534.017Z" transform="translate(-2359.872 -1532.507)"/>
    </g>
    <g id="Group_122" data-name="Group 122" transform="translate(805.706 643.976)">
      <path id="Path_467" data-name="Path 467" class="cls-29" d="M2477.869,1679.861a1.728,1.728,0,0,0-1.721,2.037c.058.871.921,1.765,1.356,2.8.385.917.364,2.135.953,2.961.63.883,1.774,1.226,2.539,1.756.929.644,1.9,1.446,2.854,1.146.542-.547.287-1.765.2-2.912-.061-.856.311-1.935-.036-2.876-.323-.875-1.295-1.464-1.82-2.236-.555-.816-.789-1.948-1.522-2.452C2479.872,1679.536,2478.826,1679.786,2477.869,1679.861Z" transform="translate(-2476.141 -1679.739)"/>
    </g>
    <path id="Path_468" data-name="Path 468" class="cls-28" d="M2296.33,1458.011s2.639,2.513,4.161.077,1.522-3.653,4.262-3.653,1.826-2.436,0-2.436-2.174.335-2.174.335A24.845,24.845,0,0,0,2296.33,1458.011Z" transform="translate(-1545.362 -877.353)"/>
    <path id="Path_469" data-name="Path 469" class="cls-29" d="M2286.658,1606.517s1.2-4.729,2.421-3.207.913,6.7.913,6.7,3.653-4.262,3.957-1.218,2.131,11.264,4.566,10.046l2.435-1.218s2.74,2.74-.609,5.784-3.653,1.218-3.958,5.175.151,4.37.151,4.37-4.108-4.978-4.108-7.718v-.3c-.609.609-5.186,10.632-3.963-10.21C2287.252,1615.183,2283.933,1617.639,2286.658,1606.517Z" transform="translate(-1537.907 -982.391)"/>
    <path id="Path_470" data-name="Path 470" class="cls-27" d="M2458.821,1771.813s2.3,5.165-1.352,14.6,0,13.09,2.436,7.61.608,5.784.608,5.784,1.452,4.87,3.161-3.805,2.928-24.81-.116-25.115A7.228,7.228,0,0,0,2458.821,1771.813Z" transform="translate(-1656.372 -1099.132)"/>
    <path id="Path_471" data-name="Path 471" class="cls-27" d="M2173.233,1869.937c4.06,2.436,5.345,2.965,10.134.5-.421.217,6.633,1.8,4.174-2.709C2185.423,1863.843,2168.709,1867.223,2173.233,1869.937Z" transform="translate(-1459.201 -1165.302)"/>
    <path id="Path_472" data-name="Path 472" class="cls-27" d="M2299.674,1911.131s5.522.505,5.218-1.168-.609-3.8,3.654-1.978,3.044-1.282,2.283-2.01,2.374-2.411,4.917,1.018,3.654,1.067,3.654,1.067l.41,5.1s-13.09,3.044-17.047.914S2299.674,1911.131,2299.674,1911.131Z" transform="translate(-1547.631 -1192.391)"/>
    <path id="Path_473" data-name="Path 473" class="cls-27" d="M2357.487,1685.578s.913,8.652-2.131,10.174-1.218,8.524,1.218,4.87,3.044-.609,2.74.914,0,4.262,1.218-.914S2363.575,1696.409,2357.487,1685.578Z" transform="translate(-1585.31 -1039.825)"/>
    <path id="Path_474" data-name="Path 474" class="cls-27" d="M2371.892,1727.635s.641,2.965,2.468.225c.609-2.435,3.083,1.132.02-7.5" transform="translate(-1597.922 -1064.018)"/>
  </g>
</svg>
