<svg xmlns="http://www.w3.org/2000/svg" width="572.999" height="100.471" viewBox="0 0 572.999 100.471">
  <defs>
    <style>
      .cls-1 {
        fill: #011936;
      }

      .cls-2 {
        fill: #f4fffd;
      }
    </style>
  </defs>
  <g id="Group_10" data-name="Group 10" transform="translate(-38.95 -197.55)">
    <path id="Path_5" data-name="Path 5" class="cls-1" d="M147.005,259.391c-1.372,2.861-3.929,4.6-6.282,6.6a16.283,16.283,0,0,0-3.209,3.54,26.607,26.607,0,0,0-1.94,4.684c-.035.1-.082.177-.117.272-.723,1.644-2.307,2.663-2.818,4.437C128.595,293.194,107,288.982,98.246,295.8c-7.075,5.513-24.692.283-28.632-10.211-1.136-3.029.177-.166-1.372-3.076-1.6-2.994-5.149-2.271-8.048-1.587-12.387,2.9-10.376-6.412-13.984-11.406a13.98,13.98,0,0,1-2.78-8.578c.152-3.527,2.377-4.508,4.3-7.04,3.9-5.135-6.26-7.276-8.07-11.251-2.638-5.787,2.614-9.1,7.583-9.42,2.744-.166,5.608-.864,6.744-3.644,1.1-2.674-.2-5.266-.663-7.9-1.065-6.081,5.314-11,10.009-13.642,5.646-3.171,12.7-5.632,19.253-4.483a18.7,18.7,0,0,1,6.909,2.152c2.081,1.171,3.016,3.442,5.524,2.366,5.668-2.426,3.953-7.561,9.311-9.89,5.586-2.437,11.536,2.66,14.873,6.589,1.777,2.095,3.3,4.2,6.225,4.521s5.075-.144,7.738,1.513c5.075,3.171,10.352,10.4,9.833,16.647-.261,3.135-3.3,5.171-3.385,8.2-.1,3.573,4.342,4.225,6.7,5.749C152.662,245.51,149.654,253.829,147.005,259.391Z" transform="translate(0 0)"/>
    <g id="Group_9" data-name="Group 9" transform="translate(54.869 212.225)">
      <g id="Group_5" data-name="Group 5">
        <g id="Group_4" data-name="Group 4">
          <g id="Group_3" data-name="Group 3">
            <path id="Path_6" data-name="Path 6" class="cls-2" d="M68.583,221.126l-18.242,1.826c-1.307.13-4.1.935-5.1-.264a1.824,1.824,0,0,1,1.2-2.945,16.8,16.8,0,0,1,1.918-.19l8.977-.9,10.835-1.084A9.152,9.152,0,0,0,68.583,221.126Z" transform="translate(-44.809 -177.848)"/>
            <path id="Path_7" data-name="Path 7" class="cls-2" d="M96.85,215.634h-.035l-1.407.141q-8.114.815-16.245,1.619-7.544.766-15.074,1.516c-1.054.106-2.106.2-3.16.307-.321.035-1.714-.035-1.929.2-.519.557.049,3.184.709,3.527.533.272,2.4-.25,3.114-.321,1.524-.141,3.051-.307,4.578-.448q14.285-1.439,28.561-2.864a5.533,5.533,0,0,0,1.492-.331v-.011a.219.219,0,0,0,.082-.024l.024-.011.948-.522,2.578-1.407Zm-11.311,3.63c-1.291.12-2.592.25-3.883.367a6.708,6.708,0,0,1-1.75.179.7.7,0,0,1-.166-1.3,4.39,4.39,0,0,1,1.266-.12c.829-.071,1.668-.152,2.5-.236a7.811,7.811,0,0,1,1.8-.166C85.835,218.071,86.318,219.193,85.539,219.264ZM90.4,218.8c-.807.071-1.622.177-2.44.223-.307.024-.639.144-.875-.117a.762.762,0,0,1,.25-1.125,7.941,7.941,0,0,1,2.437-.236c.307-.011.639-.13.875.13C90.91,217.952,90.826,218.756,90.4,218.8Z" transform="translate(-20.792 -181.175)"/>
            <path id="Path_8" data-name="Path 8" class="cls-2" d="M59.358,231.645c-.791.8-4.747.38-5.9.489-1.551.141-3.089.361-4.633.541a.609.609,0,0,1-.467-.128c-.212-.179-.834-.046-.981-.174-.228-.2.293-2.682.372-3.486a1.412,1.412,0,0,0-.027-.478.71.71,0,0,0-.13-.274.617.617,0,0,0-.1-.092L47.438,228c-.016-.011-.049-.014-.057-.033a.068.068,0,0,1-.005-.027l.005-.038.008-.079.016-.158.03-.291c.024-.2.046-.408.073-.611s.049-.4.076-.609.057-.4.087-.6c.022-.144.043-.288.068-.432l.005-.043c.321-1.954.777-3.619,1.483-4.133s10.433-1.638,11.039-1.076C60.793,220.47,60.037,230.958,59.358,231.645Z" transform="translate(-40.505 -174.151)"/>
            <path id="Path_9" data-name="Path 9" class="cls-2" d="M91.6,233.749c0,4.488.505,3.945-4.173,4.429-3.551.367-7.1.734-10.659,1.073-3.146.3-7.488,1.41-10.618.994a12.525,12.525,0,0,1-1.66-.171,17.761,17.761,0,0,0-3.165.1.665.665,0,0,1-.755-.516c-.435-1.962-1.011-4.024-.337-5.113.818-1.318,2.472-3.673,3.964-6.32l.005-.008c.753-1.462,1.663-2.872,2.4-4.268,1.72-3.252,1.782-4.38,5.355-4.774,2.687-.3,6.578-1.337,9.216-.878-.043,1.538-2.059,4.046-2.7,5.279q-1.675,3.228-3.358,6.45l-.011.019-1.348,2.247a.247.247,0,0,0,.364.321l4.228-3.307.011-.011c2.7-.872,6.439-2.03,9.246-2.815l.231-.063c.1-.03.209-.057.307-.087l.592-.16.28-.073.133-.035a.651.651,0,0,1,.829.766c-.043.478.864.359,1.459.2a.377.377,0,0,1,.47.356C91.965,229.579,91.6,233.065,91.6,233.749Z" transform="translate(-18.856 -176.804)"/>
            <path id="Path_10" data-name="Path 10" class="cls-2" d="M77.836,205.029a.2.2,0,0,1,.168.3c-1.013,1.962-2.04,3.915-3.062,5.874-.668,1.28-.459,1.166-1.622,1.5a28.9,28.9,0,0,1-4.785.478c-.223.022-.56.092-.921.158a1.177,1.177,0,0,1-1.051-.345.435.435,0,0,0-.424-.147.614.614,0,0,1-.663-.2v0c-.522-.891-.986-2.312-1.291-2.9q-1.247-2.392-2.5-4.79a.52.52,0,0,1,.592-.742l.022.005c.671.171,2.225-.679,2.443-.8a.251.251,0,0,1,.054-.019c.959-.171,3.013-.663,3.573-.34.783.448,1.293,3.671,1.636,5.276a.2.2,0,0,0,.389.027,17.738,17.738,0,0,1,1-2.448,1.472,1.472,0,0,1,.859-.7,2.413,2.413,0,0,1,.788-.092.787.787,0,0,0,.619-.163.718.718,0,0,1,.486-.212C75.415,204.763,76.89,204.983,77.836,205.029Z" transform="translate(-15.934 -202.951)"/>
            <path id="Path_11" data-name="Path 11" class="cls-2" d="M95.01,216.366c-.437,2.785-2.307,5.456-3.592,7.923-1.668,3.2-1.7,4.654-5.266,5.19-3.165.478-6.39.552-9.572.913.834-2.8,3.01-5.162,4.3-7.811a.4.4,0,0,1,.163-.174l4.5-2.584a.137.137,0,0,0-.1-.253l-5.374,1.22,0,0h-.005c-2.309.372-4.861,1.361-6.969,1.864q-5.4,1.284-10.795,2.57a1.355,1.355,0,0,1-1.644-1.07v-.005a1.4,1.4,0,0,1,.068-.747,10.736,10.736,0,0,0,.212-3.383,1.078,1.078,0,0,0-.277-.628c-.715-.75-2.451-5.244-2.451-5.244l0,0a3.572,3.572,0,0,1-.111-2.269c.158-.587,4.581-.549,5.065-.6q8.42-.84,16.84-1.685,3.277-.33,6.562-.666c2.828-.888,6.358-1.948,6.673-1.823a3.5,3.5,0,0,1,.869.75.608.608,0,0,0,.321.171,1.169,1.169,0,0,1,.494.171C95.388,208.552,95.165,215.363,95.01,216.366Z" transform="translate(-22.246 -195.834)"/>
            <path id="Path_12" data-name="Path 12" class="cls-2" d="M77.585,253.95a41.232,41.232,0,0,1-3.684,6.583,3.89,3.89,0,0,1-1.426,1.383c-.918.522-2.049,1.334-2.127,2.217-1.272,3.752-3.48,1.554-3.279,0a3.382,3.382,0,0,0-.158-1.31,7.878,7.878,0,0,1-.3-1.864c-.008-.242-.022-.462-.043-.652-.226-2.157-.494-4.312-.744-6.466-1.263-10.933-2.486-21.869-3.785-32.794,0,0-.179-1.837-.5-1.837-.258,0-3.07.484-4.133.666a.126.126,0,0,0-.03.239l2.217,1a.746.746,0,0,1,.429.671,1.306,1.306,0,0,1-.12.728c-1.157,2.106-.576,7.469-.766,9.958-.174,2.3.258,2.261-1.3,3.016-1.638.8-6.233.992-8.618.937a.746.746,0,0,1-.723-.818c.234-2.451.962-9.871,1.32-10.854a13.521,13.521,0,0,0,1.041-2.763l.022-.133a.432.432,0,0,1,.014-.065q.571-3.371,1.157-6.738c.236-1.364.475-2.731.693-4.1.448-2.79-.046-3.016,2.489-3.834a20.531,20.531,0,0,1,5.214-.744s.033,0,.087,0a2.283,2.283,0,0,1,1.166.223.719.719,0,0,0,.4.114,36.457,36.457,0,0,0,4.969-.495c.481-.187,2.005.739,2.1,1.174l.008.033c.109.467.215,1.076.361,1.856q.2,1.064.4,2.127a.7.7,0,0,0,.1.253,5.774,5.774,0,0,0,.821,1.057c.641.641.848,6.382,1.263,10.048l.008.062q1.3,6.5,2.6,13,.6,3.016,1.2,6.034c.063.321.139.639.22.954q.134.534.285,1.06c.106.38.215.758.326,1.138.057.2.114.4.171.6s.1.4.166.59a1.3,1.3,0,0,1,.068.269.735.735,0,0,1-.035.307.828.828,0,0,1-.062.141c-.024.041-.06.076-.084.117a.711.711,0,0,0-.065.139,1.836,1.836,0,0,0-.09.375,4.1,4.1,0,0,0-.035.484c-.005.188,0,.378.008.565.008.209.024.416.041.622s.046.44.073.658.057.443.09.666.068.429.1.647q.049.3.106.6c.033.179.068.359.1.538l.09.446c.03.144.063.288.092.432a.9.9,0,0,0,.052.166,1.008,1.008,0,0,1,.079.242A.758.758,0,0,1,77.585,253.95Z" transform="translate(-38.498 -197.386)"/>
          </g>
        </g>
      </g>
      <g id="Group_8" data-name="Group 8" transform="translate(114.688 5.493)">
        <g id="Group_6" data-name="Group 6" transform="translate(0 10.094)">
          <path id="Path_13" data-name="Path 13" class="cls-2" d="M116.233,230.037c-1.136-6.9-2.13-13.713-3.184-20.611-2.921-.106-5.9-.155-8.838-.155a85.667,85.667,0,0,0-14.3,1.4c-.948,11.17-1.943,22.255-2.888,33.531h7.657l1.538-6.6,12.221-.448c.994,3.372,2.081,6.708,3.125,10.08l7.559-1.136C117.972,240.72,117.027,235.455,116.233,230.037Zm-19.073.6a4.2,4.2,0,0,0,.2-.744,53.111,53.111,0,0,1,1.788-7.407,4.576,4.576,0,0,1,2.377-.4h1.2a9.191,9.191,0,0,1,2.081.25c.8.557,1.739,6.909,1.894,8.056Z" transform="translate(-87.02 -207.687)"/>
          <path id="Path_14" data-name="Path 14" class="cls-2" d="M124.344,236.362c-4.317-.155-8.542-.049-12.919-.2.155-4.176.307-8.3.557-12.471.342-4.969.994-9.879,1.739-14.8-4.377.342-8.648.543-13.074.592.247,6.366.448,12.672.543,18.883.106,6.26.25,12.566.4,18.883,7.9-.448,15.607-.994,23.5-1.6Z" transform="translate(-63.624 -208.345)"/>
          <path id="Path_15" data-name="Path 15" class="cls-2" d="M122.483,238.375l-.747-6.165,11.928-2.127c0-.948.046-1.943.046-2.888a41.978,41.978,0,0,0-.5-6.662l-12.813.747.1-3.918c6.518-.554,12.824-.85,19.334-1.2l-.546-6.613c-4.021-.187-8.056-.391-12.08-.391-5.312,0-8.743.049-10.482.049s-3.478-.049-5.219-.049c.155,4.567.31,8.993.31,13.514v.946c0,7.8-.356,15.452-.557,23.2,9.4,0,16.8-.109,22.41-.109h5.619a79.341,79.341,0,0,1-1.69-9.879C132.468,237.289,127.51,238.033,122.483,238.375Z" transform="translate(-45.41 -207.874)"/>
          <path id="Path_16" data-name="Path 16" class="cls-2" d="M161.642,210.674,151.6,209.481c.152,8.341.448,16.492.5,24.787-1.929-5.171-3.918-10.284-5.467-15.5-1.041-3.432-2.176-6.757-3.527-10.08l-19.427.1c.353,6.363.554,12.672.7,18.978s.3,12.623.451,18.978l10.732.293c.4-8.931,1.087-17.734,1.69-26.678,1.633,4.127,3.279,8.151,5.113,12.175,2.543,5.513,5.016,10.835,7.559,16.351a34.347,34.347,0,0,1,6.013-.546q3.053,0,6.105.144c.046-5.809.106-11.43.106-17.239C162.139,224.33,161.889,217.573,161.642,210.674Z" transform="translate(-24.085 -208.688)"/>
        </g>
        <g id="Group_7" data-name="Group 7" transform="translate(156.948)">
          <path id="Path_17" data-name="Path 17" class="cls-2" d="M164.913,205.375l-2.532,6.507-2.733-6.909-7.407,1.6,5.559,8.14,8.012-.7,6.105-8.637Zm3.774,31.248a95.563,95.563,0,0,0,10.14-7.7c-.4-3.82-.5-7.643-1.242-11.477-5.219-.141-10.39-.247-15.607-.247H144.785l.4,7.7c3.975-.2,7.844-.4,11.822-.4,3.584,0,5.915.057,7.11.057s2.437-.057,3.619-.057c-7.8,6.708-15.145,13.523-22.551,20.527.747,3.171.747,6.306,1.136,9.488,5.717-.448,11.43-.85,17.25-1.193q6.994-.375,14.012-1.2l.141-8.2c-7.1,0-14.058.448-21.062.7Z" transform="translate(-144.785 -204.973)"/>
          <path id="Path_18" data-name="Path 18" class="cls-2" d="M170.72,238.375l-.747-6.165,11.928-2.127c0-.948.046-1.943.046-2.888a42.3,42.3,0,0,0-.494-6.662l-12.816.747.1-3.918c6.507-.554,12.827-.85,19.334-1.2l-.546-6.613c-4.032-.187-8.056-.391-12.08-.391-5.312,0-8.743.049-10.482.049s-3.478-.049-5.217-.049c.152,4.567.293,8.993.293,13.514v.946c0,7.8-.342,15.452-.543,23.2,9.4,0,16.788-.109,22.41-.109h5.619a79.33,79.33,0,0,1-1.69-9.879C180.705,237.289,175.736,238.033,170.72,238.375Z" transform="translate(-119.535 -197.78)"/>
          <path id="Path_19" data-name="Path 19" class="cls-2" d="M195.317,236.362c-4.317-.155-8.542-.049-12.919-.2.155-4.176.3-8.3.543-12.471.356-4.969.994-9.879,1.742-14.8-4.366.342-8.637.543-13.063.592.247,6.366.448,12.672.543,18.883.106,6.26.25,12.566.4,18.883,7.893-.448,15.6-.994,23.5-1.6Z" transform="translate(-98.711 -198.251)"/>
          <path id="Path_20" data-name="Path 20" class="cls-2" d="M193.456,238.375l-.747-6.165,11.928-2.127c0-.948.046-1.943.046-2.888a41.978,41.978,0,0,0-.5-6.662l-12.813.747.1-3.918c6.507-.554,12.827-.85,19.334-1.2l-.546-6.613c-4.035-.187-8.056-.391-12.08-.391-5.312,0-8.743.049-10.482.049s-3.478-.049-5.217-.049c.152,4.567.293,8.993.293,13.514v.946c0,7.8-.342,15.452-.543,23.2,9.4,0,16.8-.109,22.41-.109h5.619a79.336,79.336,0,0,1-1.69-9.879C203.441,237.289,198.472,238.033,193.456,238.375Z" transform="translate(-80.497 -197.78)"/>
          <path id="Path_21" data-name="Path 21" class="cls-2" d="M217.98,228.9a94.336,94.336,0,0,0,10.129-7.7c-.391-3.82-.5-7.643-1.231-11.477-5.219-.141-10.39-.247-15.606-.247H194.081l.4,7.7c3.975-.2,7.844-.4,11.819-.4,3.573,0,5.915.057,7.11.057s2.426-.057,3.622-.057c-7.8,6.708-15.158,13.523-22.551,20.527.744,3.171.744,6.306,1.136,9.488,5.714-.448,11.428-.85,17.239-1.193q7.01-.375,14.02-1.2l.141-8.2c-7.1,0-14.055.448-21.06.7Z" transform="translate(-60.143 -197.248)"/>
          <path id="Path_22" data-name="Path 22" class="cls-2" d="M247.035,210.674,237,209.481c.155,8.341.451,16.492.5,24.787-1.94-5.171-3.926-10.284-5.467-15.5-1.041-3.432-2.187-6.757-3.524-10.08l-19.429.1c.342,6.363.546,12.672.7,18.978s.3,12.623.451,18.978l10.729.293c.391-8.931,1.09-17.734,1.682-26.678,1.644,4.127,3.288,8.151,5.122,12.175,2.532,5.513,5.018,10.835,7.551,16.351a34.292,34.292,0,0,1,6.01-.546c2.046,0,4.081.049,6.116.144.049-5.809.1-11.43.1-17.239C247.532,224.33,247.285,217.573,247.035,210.674Z" transform="translate(-34.393 -198.594)"/>
          <path id="Path_23" data-name="Path 23" class="cls-2" d="M225.339,210.6c.046,1.383.141,2.779.2,4.116.046,1.4.1,2.779.141,4.176l4.722.592c.448,6.165.9,12.221,1.242,18.435l-3.231.046c.2,3.231.247,6.366.247,9.6l17.843-.3a22.979,22.979,0,0,1-.4-4.923v-2.981c0-.994.049-1.989.106-2.934l-5.075-.1c-.046-2.78-.1-5.418-.1-8.2,0-2.331.049-4.518.1-6.86l5.516.2c.057-1.337.057-2.627.057-3.978v-3.027c0-1.633.049-3.326.19-5.018C239.6,210,232.545,210.353,225.339,210.6Z" transform="translate(-6.473 -197.279)"/>
          <path id="Path_24" data-name="Path 24" class="cls-2" d="M258.891,223.967l10.542-10.982.19-3.679c-3.171.25-6.461.5-9.632.7-3.383,3.975-6.412,7.8-9.985,11.526L250.3,210c-4.972-.141-9.787-.1-14.756-.247.141,3.087.3,6.162.437,9.192.4,9.289,1.445,18.435,2.638,27.521a28.523,28.523,0,0,1,4.024-.247c1.443,0,2.934.06,4.472.106l.5-11.028,5.312-5.17c4.179,5.812,7.953,11.68,11.928,17.69,3.231-.546,6.366-1.149,9.537-1.894C269.03,238.579,263.906,231.469,258.891,223.967Z" transform="translate(11.053 -197.533)"/>
        </g>
      </g>
    </g>
  </g>
</svg>
