<svg xmlns="http://www.w3.org/2000/svg" width="1921.5" height="137.844" viewBox="0 0 1921.5 137.844">
  <defs>
    <style>
      .cls-1 {
        fill: #f79838;
        stroke: rgba(0,0,0,0);
        stroke-miterlimit: 10;
      }
    </style>
  </defs>
  <path id="Subtraction_6" data-name="Subtraction 6" class="cls-1" d="M735.709,1438.845h-.073c-71.73,0-146.377-1-221.869-2.978-37.526-.975-76.784-2.244-116.684-3.771-16.373-.628-33.055-1.309-49.584-2.024V1302H2268v120.011c-11.042,2.049-27.351,3.045-49.861,3.045-12.645,0-25.418-.306-36.4-.592l-4.484-.118h-.02c-9.583-.254-17.859-.473-24.159-.473-2.579,0-4.658.037-6.356.112-8.068.356-16.275.723-24.211,1.078l-.119.005c-53.536,2.393-108.9,4.867-163.375,5.958-18.27.368-37.446.554-57,.554-32.561,0-67.36-.5-106.385-1.54-47.469-1.262-95.682-3.164-142.307-5-26.626-1.05-54.159-2.136-81.251-3.091-39.474-1.387-79.818-2.061-123.338-2.061-50.889,0-106.435.959-169.812,2.931-56.518,1.759-113.946,4.144-169.483,6.452l-.051,0c-46.2,1.919-93.968,3.9-141.045,5.521-59.179,2.03-108.569,3.2-155.435,3.671C787.493,1438.715,761.516,1438.845,735.709,1438.845Z" transform="translate(-347 -1301.5)"/>
</svg>
